<?xml version="1.0" standalone="no"?>
<!DOCTYPE svg PUBLIC "-//W3C//DTD SVG 20010904//EN"
 "http://www.w3.org/TR/2001/REC-SVG-20010904/DTD/svg10.dtd">
<svg version="1.0" xmlns="http://www.w3.org/2000/svg"
 width="2840.000000pt" height="486.000000pt" viewBox="0 0 2840.000000 486.000000"
 preserveAspectRatio="xMidYMid meet">

<g transform="translate(0.000000,486.000000) scale(0.100000,-0.100000)"
fill="#000000" stroke="none">
<path d="M17680 4719 c-115 -11 -259 -35 -378 -64 -113 -27 -1603 -484 -1615
-494 -4 -4 43 -20 105 -34 402 -95 771 -100 1179 -17 90 19 1642 490 1678 510
16 8 -147 50 -294 75 -203 34 -472 43 -675 24z"/>
<path d="M23725 4703 c-86 -9 -293 -45 -369 -63 -103 -26 -1576 -503 -1576
-510 0 -9 214 -58 327 -75 182 -28 397 -37 564 -26 308 22 440 52 954 219 220
72 556 181 747 244 214 69 342 115 334 120 -22 12 -170 46 -301 69 -97 17
-170 22 -380 24 -143 2 -278 1 -300 -2z"/>
<path d="M2130 4659 c-426 -49 -865 -223 -1205 -479 -405 -305 -719 -774 -844
-1263 -143 -555 -82 -1125 173 -1629 102 -202 229 -384 385 -550 77 -82 220
-213 207 -188 -5 8 5 0 22 -18 30 -31 45 -40 39 -24 -1 4 2 7 8 7 5 0 8 -8 7
-18 -4 -20 9 -22 27 -5 10 11 11 10 6 -4 -5 -13 -2 -15 13 -11 20 5 23 18 9
41 -11 17 1 15 19 -3 10 -10 11 -15 3 -15 -9 0 -9 -3 0 -14 9 -11 8 -15 -6
-21 -10 -5 -22 -7 -28 -6 -5 1 -1 -6 9 -14 11 -8 25 -15 30 -14 6 0 5 3 -2 6
-6 2 -9 9 -6 15 4 7 14 1 24 -13 16 -20 20 -21 34 -10 19 16 13 26 -17 26 -20
0 -29 18 -20 37 2 4 20 0 40 -9 33 -13 36 -13 24 0 -10 13 -9 15 8 10 24 -6
28 -33 5 -33 -8 0 -13 -4 -9 -9 3 -5 1 -12 -5 -16 -6 -4 -8 -11 -5 -16 4 -5 1
-9 -6 -9 -7 0 -10 -2 -7 -5 3 -3 17 0 32 6 19 9 23 15 15 25 -6 8 -7 14 0 18
5 4 14 -2 20 -11 6 -10 11 -13 11 -8 1 6 5 1 10 -10 7 -16 9 -16 9 -4 1 9 7
29 15 43 11 22 15 24 20 10 3 -9 13 -14 21 -10 12 4 13 2 3 -14 -9 -14 -16
-16 -25 -8 -7 6 -13 9 -14 7 -7 -34 -6 -38 4 -32 36 23 63 12 58 -22 -1 -5 11
4 25 20 30 33 63 40 79 19 7 -10 14 -11 25 -3 13 9 13 10 -2 6 -13 -5 -16 0
-15 19 1 13 7 23 12 22 6 -2 9 -9 9 -15 -1 -7 2 -10 7 -7 14 8 11 -30 -3 -45
-11 -10 -10 -11 5 -6 9 4 17 11 17 16 0 5 5 8 12 6 7 -1 12 5 13 13 0 8 6 16
13 16 6 1 17 2 23 3 5 0 7 6 4 11 -4 6 -11 8 -16 5 -14 -9 -11 5 5 21 8 8 17
10 20 5 4 -5 0 -12 -6 -14 -8 -4 -7 -6 4 -6 11 -1 15 -7 11 -21 -4 -15 -2 -19
9 -15 10 4 14 16 11 33 l-3 27 14 -30 c10 -22 11 -32 3 -37 -6 -4 -9 -10 -5
-13 3 -3 12 1 21 9 17 17 28 11 20 -10 -3 -8 -1 -14 4 -14 19 0 9 34 -16 56
l-26 22 32 -1 c26 -2 29 -4 20 -16 -10 -12 -9 -12 11 -2 12 7 20 17 17 24 -4
7 -1 5 7 -4 7 -9 18 -14 25 -12 6 2 15 -1 19 -8 5 -8 3 -9 -6 -4 -9 5 -11 4
-6 -4 11 -17 29 -2 21 18 -4 10 -3 13 4 6 19 -20 16 -39 -6 -40 -13 0 -22 -4
-21 -10 2 -5 6 -9 10 -8 5 2 8 -1 8 -5 0 -5 14 -9 30 -10 17 0 28 3 25 8 -3 4
2 10 10 14 8 3 17 1 20 -5 4 -5 11 -7 16 -3 5 3 16 0 24 -6 11 -9 15 -9 15 -1
0 6 -4 11 -10 11 -5 0 -10 7 -10 16 0 12 3 14 13 6 13 -11 41 -11 52 0 3 3 -1
8 -10 11 -8 4 -15 2 -15 -3 0 -6 -5 -10 -11 -10 -5 0 -7 5 -3 12 4 7 3 8 -4 4
-7 -4 -12 -2 -12 3 0 6 5 11 12 11 6 0 8 3 5 6 -4 4 -13 1 -21 -5 -13 -11 -19
-7 -36 21 -11 18 -20 27 -20 19 0 -8 -3 -12 -6 -8 -3 3 -3 10 1 16 10 17 46
-6 38 -25 -5 -13 -2 -15 16 -9 12 4 28 2 34 -4 7 -5 22 -10 32 -9 11 0 41 -3
68 -6 37 -4 47 -2 47 9 0 8 5 15 11 15 5 0 7 -5 4 -10 -4 -6 6 -10 24 -10 32
0 49 -14 30 -26 -6 -3 -14 -1 -18 5 -5 7 -12 2 -19 -14 -7 -15 -8 -24 -2 -20
5 3 10 1 10 -6 0 -17 21 3 43 40 14 24 15 30 4 25 -8 -3 -18 -1 -22 5 -3 7 0
8 9 5 9 -3 16 -1 16 5 0 6 -7 11 -15 11 -8 0 -15 5 -15 11 0 5 -3 8 -7 6 -5
-3 -17 -1 -28 4 -19 7 -19 8 3 8 12 1 34 -6 47 -15 17 -11 25 -12 25 -5 0 7 5
9 11 5 8 -4 7 -9 -2 -15 -11 -8 -10 -12 6 -25 11 -8 19 -22 17 -30 -4 -22 15
-17 21 6 3 11 1 20 -4 20 -23 0 -6 16 19 17 16 1 21 -1 12 -5 -8 -4 -16 -13
-18 -20 -2 -10 2 -10 19 -1 17 9 20 8 13 -2 -12 -20 -11 -56 3 -56 7 0 10 4 7
8 -10 16 20 21 31 5 11 -15 13 -15 19 -1 3 9 2 13 -3 10 -5 -3 -12 -1 -16 5
-3 5 -2 10 3 10 6 0 8 10 4 23 -5 19 -3 20 10 9 13 -10 19 -10 32 3 18 18 18
19 21 -13 2 -17 -1 -20 -10 -12 -18 15 -26 -2 -9 -17 10 -10 16 -9 28 9 8 12
13 25 10 30 -3 4 2 5 10 2 9 -3 16 -10 16 -16 0 -5 -4 -6 -10 -3 -5 3 -10 1
-10 -4 0 -6 11 -11 25 -11 14 0 25 5 25 10 0 6 -4 10 -10 10 -5 0 -10 8 -10
18 0 14 2 15 10 2 9 -14 15 -6 10 15 -1 6 2 6 7 2 4 -5 8 -14 8 -20 0 -7 11
-11 24 -9 33 5 73 -7 66 -19 -5 -6 -13 -5 -23 3 -15 11 -15 11 -4 -3 8 -11 21
-15 34 -11 16 4 19 2 13 -8 -6 -9 -4 -11 4 -5 7 4 22 -2 37 -16 13 -12 24 -20
24 -16 0 4 35 -16 78 -44 42 -28 140 -82 217 -119 201 -98 372 -155 605 -202
l115 -23 10650 -3 c9642 -2 10660 -1 10760 13 733 105 1372 564 1699 1221 258
520 310 1090 151 1644 -50 173 -104 299 -127 295 -21 -4 -24 15 -5 34 10 11
10 13 0 7 -9 -5 -13 0 -13 13 0 43 -9 49 -63 44 -38 -3 -48 -1 -37 6 13 9 13
11 -2 11 -22 0 -31 -31 -19 -62 11 -29 4 -42 -26 -46 -15 -2 -23 2 -23 12 0 8
-5 18 -11 22 -8 4 -9 -1 -5 -17 3 -13 3 -18 0 -11 -3 6 -11 9 -17 5 -17 -10
-37 -13 -37 -4 0 4 -11 8 -25 9 -19 1 -23 -2 -19 -16 5 -14 4 -14 -4 -3 -7 9
-7 21 -2 32 5 9 7 19 4 21 -2 3 7 3 22 0 17 -3 22 -7 14 -12 -9 -5 -6 -10 10
-15 12 -4 27 -2 33 4 8 8 6 11 -6 11 -9 0 -17 5 -17 10 0 7 6 7 20 0 11 -6 20
-8 20 -5 0 3 9 1 20 -5 11 -6 18 -15 15 -20 -3 -4 4 -6 15 -3 19 5 20 6 3 20
-10 8 -12 12 -5 8 15 -8 15 0 1 26 -6 12 -17 18 -25 15 -8 -3 -12 -2 -9 3 3 5
1 12 -5 16 -5 3 -10 1 -10 -5 0 -6 -4 -9 -9 -5 -5 3 -12 1 -16 -5 -4 -7 -13
-5 -27 4 -13 9 -29 12 -46 7 -15 -5 -36 -5 -47 -1 -12 5 -29 2 -44 -7 -21 -13
-26 -14 -35 -2 -6 8 -22 14 -35 15 -22 1 -23 0 -6 -13 23 -16 11 -17 -18 -1
-24 12 -68 18 -61 7 2 -4 -8 -7 -21 -7 -14 0 -28 4 -31 9 -3 5 -12 9 -20 9 -9
0 -12 -5 -8 -11 4 -8 0 -9 -15 -4 -12 4 -21 2 -21 -4 0 -6 -4 -11 -10 -11 -5
0 -7 8 -4 18 5 14 3 14 -10 -2 -11 -13 -16 -15 -16 -6 0 7 -3 10 -7 7 -3 -4
-13 -1 -21 6 -11 8 -14 8 -9 0 4 -6 3 -14 -3 -18 -5 -3 -10 0 -10 7 0 9 -3 9
-10 -2 -6 -10 -10 -11 -10 -2 0 6 -5 12 -11 12 -5 0 -7 -6 -3 -13 6 -9 4 -9
-8 1 -9 7 -28 11 -42 8 -15 -3 -24 -1 -21 4 7 11 -63 6 -73 -5 -4 -5 -1 -5 6
-1 18 10 15 1 -5 -15 -12 -10 -14 -10 -9 -1 4 7 1 15 -8 18 -9 3 -13 11 -9 18
4 6 -2 4 -13 -4 -29 -22 -30 -24 -11 -17 10 4 16 3 12 -2 -8 -13 -50 -7 -71
10 -14 11 -16 11 -10 0 7 -10 3 -12 -13 -6 -14 4 -21 2 -21 -6 0 -8 -5 -7 -17
3 -21 18 -55 20 -65 4 -5 -8 -8 -7 -8 1 0 7 -7 10 -15 7 -8 -4 -12 -10 -9 -15
8 -14 -3 -10 -20 7 -9 8 -16 11 -16 5 0 -7 -8 -7 -26 -1 -16 7 -23 7 -19 0 3
-6 1 -10 -4 -10 -6 0 -11 6 -11 13 0 9 -3 8 -9 -2 -5 -7 -14 -10 -20 -7 -6 4
-11 4 -11 -1 0 -13 -114 -9 -123 5 -6 9 -13 9 -28 2 -10 -6 -19 -8 -19 -4 0 3
-8 0 -17 -7 -11 -10 -14 -10 -9 -1 4 7 1 12 -8 12 -9 0 -16 -6 -16 -12 0 -9
-3 -10 -8 -2 -4 6 -18 16 -32 23 -22 11 -23 11 -7 -2 16 -14 16 -15 -8 -20
-20 -3 -25 -1 -21 10 4 11 1 11 -14 3 -15 -8 -20 -8 -20 2 0 10 -2 10 -9 -1
-6 -9 -18 -11 -35 -7 -16 4 -26 2 -26 -4 0 -7 -6 -8 -19 0 -14 7 -21 6 -24 -3
-3 -9 -7 -9 -19 0 -11 10 -17 10 -28 0 -10 -9 -11 -9 -6 0 5 10 -1 11 -25 6
-20 -4 -30 -2 -26 4 3 5 0 10 -8 10 -8 0 -15 -5 -15 -11 0 -6 -5 -5 -12 2 -18
18 -32 14 -17 -5 13 -15 12 -15 -8 -3 -12 8 -19 19 -16 25 2 5 -5 -1 -16 -15
-13 -16 -24 -21 -28 -14 -11 15 -41 25 -48 15 -3 -5 -15 -7 -27 -3 -14 3 -19
1 -14 -6 5 -8 2 -10 -8 -6 -9 3 -14 10 -11 15 3 4 -7 2 -22 -6 -20 -10 -27
-22 -28 -42 0 -16 -6 -28 -13 -28 -7 0 -16 -6 -20 -13 -5 -6 -20 -11 -34 -10
-15 1 -24 6 -22 10 3 4 -8 14 -23 22 l-28 15 26 1 c19 0 28 -6 32 -22 5 -18 8
-19 21 -9 9 8 13 18 9 25 -4 6 1 4 12 -4 16 -14 17 -13 11 7 -5 16 -2 26 13
35 12 7 21 16 21 19 0 12 -35 4 -47 -11 -11 -13 -12 -12 -13 5 0 11 -3 16 -8
10 -9 -14 -85 -14 -94 0 -5 6 -8 6 -8 -2 0 -7 -5 -13 -11 -13 -5 0 -7 4 -4 10
3 6 -1 7 -9 4 -9 -3 -13 -10 -10 -15 3 -5 -2 -9 -10 -9 -9 0 -16 8 -16 18 0
10 -3 13 -8 6 -7 -12 -74 -15 -67 -4 2 4 -7 5 -20 2 -14 -2 -22 -8 -19 -13 9
-15 -8 -10 -29 9 -11 9 -17 11 -13 4 8 -14 -3 -16 -24 -3 -8 6 -19 7 -24 3 -6
-3 -31 -8 -56 -9 -33 -3 -41 -1 -30 7 13 8 13 10 -2 10 -22 0 -31 -31 -19 -62
11 -29 4 -42 -26 -46 -15 -2 -23 2 -23 12 0 8 -5 18 -11 22 -8 4 -9 -1 -5 -17
3 -13 3 -18 0 -11 -3 6 -11 9 -17 5 -17 -10 -37 -13 -37 -4 0 4 -11 8 -25 9
-19 1 -23 -2 -19 -16 5 -14 4 -14 -4 -3 -7 9 -7 21 -2 32 5 9 7 19 4 21 -2 3
7 3 22 0 17 -3 22 -7 14 -12 -9 -5 -6 -10 10 -15 12 -4 27 -2 33 4 8 8 6 11
-6 11 -9 0 -17 5 -17 10 0 7 6 7 20 0 11 -6 20 -8 20 -5 0 3 9 1 20 -5 11 -6
18 -15 15 -20 -3 -4 4 -6 15 -3 19 5 20 6 3 20 -10 8 -12 12 -5 8 15 -8 15 0
1 26 -6 12 -17 18 -25 15 -8 -3 -12 -2 -9 3 3 5 1 12 -5 16 -5 3 -10 1 -10 -5
0 -6 -4 -9 -9 -5 -5 3 -12 1 -16 -5 -4 -7 -13 -5 -27 4 -13 9 -29 12 -46 7
-15 -5 -36 -5 -47 -1 -12 5 -29 2 -44 -7 -21 -13 -26 -14 -35 -2 -6 8 -22 14
-35 15 -22 1 -23 0 -6 -13 23 -16 11 -17 -18 -1 -24 12 -68 18 -61 7 2 -4 -8
-6 -21 -6 -14 0 -28 3 -31 8 -3 5 -12 9 -20 9 -9 0 -12 -5 -8 -11 4 -8 0 -9
-15 -4 -12 4 -21 2 -21 -4 0 -6 -4 -11 -10 -11 -5 0 -7 8 -4 17 5 15 3 15 -10
-1 -11 -13 -16 -15 -16 -6 0 7 -3 10 -7 7 -3 -4 -13 -1 -21 6 -11 8 -14 8 -9
0 4 -6 3 -14 -3 -18 -5 -3 -10 0 -10 7 0 9 -3 9 -10 -2 -6 -10 -10 -11 -10 -2
0 6 -5 12 -11 12 -5 0 -7 -6 -3 -13 6 -9 4 -9 -8 1 -9 7 -28 11 -42 8 -15 -3
-24 -1 -21 4 7 11 -63 6 -73 -5 -4 -5 -1 -5 6 -1 18 10 15 1 -5 -15 -12 -10
-14 -10 -9 -1 4 7 1 15 -8 18 -9 3 -13 11 -9 18 4 6 -2 4 -13 -4 -29 -22 -30
-24 -11 -17 10 4 16 3 12 -2 -8 -13 -50 -7 -71 10 -14 11 -16 11 -10 0 7 -10
3 -12 -13 -6 -14 4 -21 2 -21 -6 0 -8 -5 -7 -17 3 -21 18 -55 20 -65 4 -5 -8
-8 -7 -8 1 0 7 -7 10 -15 7 -8 -4 -12 -10 -9 -15 8 -14 -3 -10 -20 7 -9 8 -16
11 -16 5 0 -7 -8 -7 -26 -1 -16 7 -23 7 -19 0 3 -6 1 -10 -4 -10 -6 0 -11 6
-11 13 0 9 -3 8 -9 -2 -5 -7 -14 -10 -20 -7 -6 4 -11 4 -11 -1 0 -13 -114 -9
-123 5 -6 9 -13 9 -28 2 -10 -6 -19 -8 -19 -4 0 3 -8 0 -17 -7 -11 -10 -14
-10 -9 -1 4 7 1 12 -8 12 -9 0 -16 -6 -16 -12 0 -9 -3 -10 -8 -2 -4 6 -18 16
-32 23 -22 11 -23 11 -7 -2 16 -14 16 -15 -8 -20 -20 -3 -25 -1 -21 10 4 11 1
11 -14 3 -15 -8 -20 -8 -20 2 0 10 -2 10 -9 -1 -6 -9 -18 -11 -35 -7 -16 4
-26 2 -26 -4 0 -7 -6 -8 -19 0 -14 7 -21 6 -24 -3 -3 -9 -7 -9 -19 0 -11 10
-17 10 -28 0 -10 -9 -11 -9 -6 0 5 10 -1 11 -25 6 -20 -4 -30 -2 -26 4 3 5 0
10 -8 10 -8 0 -15 -5 -15 -11 0 -6 -5 -5 -12 2 -18 18 -32 14 -17 -5 13 -15
12 -15 -8 -3 -12 8 -19 19 -16 25 2 5 -5 -1 -16 -15 -13 -16 -24 -21 -28 -14
-11 15 -41 25 -48 15 -3 -5 -15 -7 -27 -3 -14 3 -19 1 -14 -6 5 -8 2 -10 -8
-6 -9 3 -14 10 -11 15 3 4 -7 2 -22 -6 -20 -10 -27 -22 -28 -42 0 -16 -6 -28
-13 -28 -7 0 -16 -6 -20 -13 -5 -6 -20 -11 -34 -10 -15 1 -24 6 -22 10 3 4 -8
14 -23 22 l-28 15 26 1 c19 0 28 -6 32 -22 5 -18 8 -19 21 -9 9 8 13 18 9 25
-4 6 1 4 12 -4 16 -14 17 -13 11 7 -5 16 -2 26 13 35 12 7 21 16 21 19 0 12
-35 4 -47 -11 -11 -13 -12 -12 -13 5 0 11 -3 16 -8 10 -9 -14 -85 -14 -94 0
-5 6 -8 6 -8 -2 0 -7 -5 -13 -11 -13 -5 0 -7 4 -4 10 3 6 -1 7 -9 4 -9 -3 -13
-10 -10 -15 3 -5 -2 -9 -10 -9 -9 0 -16 8 -16 18 0 10 -3 13 -8 6 -7 -12 -74
-15 -67 -4 2 4 -7 5 -20 2 -14 -2 -22 -8 -19 -13 9 -15 -8 -10 -29 9 -11 9
-17 11 -13 4 8 -14 -3 -16 -24 -3 -8 6 -19 7 -24 3 -6 -3 -31 -8 -56 -9 -33
-3 -41 -1 -30 7 13 8 13 10 -2 10 -22 0 -31 -31 -19 -62 11 -29 4 -42 -26 -46
-15 -2 -23 2 -23 12 0 8 -5 18 -11 22 -8 4 -9 -1 -5 -17 3 -13 3 -18 0 -11 -3
6 -11 9 -17 5 -17 -10 -37 -13 -37 -4 0 4 -11 8 -25 9 -19 1 -23 -2 -19 -16 5
-14 4 -14 -4 -3 -7 9 -7 21 -2 32 5 9 7 19 4 21 -2 3 7 3 22 0 17 -3 22 -7 14
-12 -9 -5 -6 -10 10 -15 12 -4 27 -2 33 4 8 8 6 11 -6 11 -9 0 -17 5 -17 10 0
7 6 7 20 0 11 -6 20 -8 20 -5 0 3 9 1 20 -5 11 -6 18 -15 15 -20 -3 -4 4 -6
15 -3 19 5 20 6 3 20 -10 8 -12 12 -5 8 15 -8 15 0 1 26 -6 12 -17 18 -25 15
-8 -3 -12 -2 -9 3 3 5 1 12 -5 16 -5 3 -10 1 -10 -5 0 -6 -4 -9 -9 -5 -5 3
-12 1 -16 -5 -4 -7 -13 -5 -27 4 -13 9 -29 12 -46 7 -15 -5 -36 -5 -47 -1 -12
5 -29 2 -44 -7 -21 -13 -26 -14 -35 -2 -6 8 -22 14 -35 15 -22 1 -23 0 -6 -13
23 -16 11 -17 -18 -1 -24 12 -68 18 -61 7 2 -4 -8 -7 -21 -7 -14 1 -28 4 -31
9 -3 5 -12 9 -20 9 -9 0 -12 -5 -8 -11 4 -8 0 -9 -15 -4 -12 4 -21 2 -21 -4 0
-6 -4 -11 -10 -11 -5 0 -7 8 -4 17 5 15 3 15 -10 -1 -11 -13 -16 -15 -16 -6 0
7 -3 10 -7 7 -3 -4 -13 -1 -21 6 -11 8 -14 8 -9 0 4 -6 3 -14 -3 -18 -5 -3
-10 0 -10 7 0 9 -3 9 -10 -2 -6 -10 -10 -11 -10 -2 0 6 -5 12 -11 12 -5 0 -7
-6 -3 -13 6 -9 4 -9 -8 1 -9 7 -28 11 -42 8 -15 -3 -24 -1 -21 4 7 11 -63 6
-73 -5 -4 -5 0 -4 8 0 13 8 13 7 1 -8 -15 -18 -26 -23 -16 -7 3 6 -1 13 -9 16
-9 3 -13 11 -9 18 4 6 -2 4 -13 -4 -29 -22 -30 -24 -11 -17 10 4 16 3 12 -2
-8 -13 -50 -7 -71 10 -14 11 -16 11 -10 0 7 -10 3 -12 -13 -6 -14 4 -21 2 -21
-6 0 -8 -5 -7 -17 3 -21 18 -55 20 -65 4 -5 -8 -8 -7 -8 1 0 7 -7 10 -15 7 -8
-4 -12 -10 -9 -15 8 -14 -3 -10 -20 7 -9 8 -16 11 -16 5 0 -7 -8 -7 -26 -1
-16 7 -23 7 -19 0 3 -6 1 -10 -4 -10 -6 0 -11 6 -11 13 0 9 -3 8 -9 -2 -5 -7
-14 -10 -20 -7 -6 4 -11 4 -11 -1 0 -13 -114 -9 -123 5 -6 9 -13 9 -28 2 -10
-6 -19 -8 -19 -4 0 3 -8 0 -17 -7 -11 -10 -14 -10 -9 -2 4 8 1 13 -8 13 -9 0
-16 -6 -16 -12 0 -9 -3 -10 -8 -2 -4 6 -18 16 -32 23 -22 11 -23 11 -7 -2 16
-14 16 -15 -8 -20 -20 -3 -25 -1 -21 10 4 11 1 11 -14 3 -15 -8 -20 -8 -20 2
0 10 -2 10 -9 -1 -6 -9 -18 -11 -35 -7 -16 4 -26 2 -26 -4 0 -7 -6 -8 -19 0
-14 7 -21 6 -24 -3 -3 -9 -7 -9 -19 0 -11 10 -17 10 -28 0 -10 -9 -11 -9 -6 0
5 10 -1 11 -25 6 -20 -4 -30 -2 -26 4 3 5 0 10 -8 10 -8 0 -15 -5 -15 -11 0
-6 -5 -5 -12 2 -18 18 -32 14 -17 -5 13 -15 12 -15 -8 -3 -12 8 -19 19 -16 25
2 5 -5 -1 -16 -15 -13 -16 -24 -21 -28 -14 -11 15 -41 25 -48 15 -3 -5 -15 -7
-27 -3 -14 3 -19 1 -14 -6 5 -8 2 -10 -8 -6 -9 3 -14 10 -11 15 3 4 -7 2 -22
-6 -20 -10 -27 -22 -28 -42 0 -16 -6 -28 -13 -28 -7 0 -16 -6 -20 -13 -5 -6
-20 -11 -34 -10 -15 1 -24 6 -22 10 3 4 -8 14 -23 22 l-28 15 26 1 c19 0 28
-6 32 -22 5 -18 8 -19 21 -9 9 8 13 18 9 25 -4 6 1 4 12 -4 16 -14 17 -13 11
7 -5 16 -2 26 13 35 12 7 21 16 21 19 0 12 -35 4 -47 -11 -11 -13 -12 -12 -13
5 0 11 -3 16 -8 10 -9 -14 -85 -14 -94 0 -5 6 -8 6 -8 -2 0 -7 -5 -13 -11 -13
-5 0 -7 4 -4 10 3 6 -1 7 -9 4 -9 -3 -13 -10 -10 -15 3 -5 -2 -9 -10 -9 -9 0
-16 8 -16 18 0 10 -3 13 -8 6 -7 -12 -74 -15 -67 -4 2 4 -7 5 -20 2 -14 -2
-22 -8 -19 -13 9 -15 -8 -10 -29 9 -11 9 -17 11 -13 4 8 -14 -3 -16 -24 -3 -8
6 -19 7 -24 3 -6 -3 -31 -8 -56 -9 -33 -3 -41 -1 -30 7 13 8 13 10 -2 10 -22
0 -31 -31 -19 -62 11 -29 4 -42 -26 -46 -15 -2 -23 2 -23 12 0 8 -5 18 -11 22
-8 4 -9 -1 -5 -17 3 -13 3 -18 0 -11 -3 6 -11 9 -17 5 -17 -10 -37 -13 -37 -4
0 4 -11 8 -25 9 -19 1 -23 -2 -19 -16 5 -14 4 -14 -4 -3 -7 9 -7 21 -2 32 5 9
7 19 4 21 -2 3 7 3 22 0 17 -3 22 -7 14 -12 -9 -5 -6 -10 10 -15 12 -4 27 -2
33 4 8 8 6 11 -6 11 -9 0 -17 5 -17 10 0 7 6 7 20 0 11 -6 20 -8 20 -5 0 3 9
1 20 -5 11 -6 18 -15 15 -20 -3 -4 4 -6 15 -3 19 5 20 6 3 20 -10 8 -12 12 -5
8 15 -8 15 0 1 26 -6 12 -17 18 -25 15 -8 -3 -12 -2 -9 3 3 5 1 12 -5 16 -5 3
-10 1 -10 -5 0 -6 -4 -9 -9 -5 -5 3 -12 1 -16 -5 -4 -7 -13 -5 -27 4 -13 9
-29 12 -46 7 -15 -5 -36 -5 -47 -1 -12 5 -29 2 -44 -7 -21 -13 -26 -14 -35 -2
-6 8 -22 14 -35 15 -22 1 -23 0 -6 -13 23 -16 11 -17 -18 -1 -24 12 -68 18
-61 7 2 -4 -8 -7 -21 -7 -14 0 -28 4 -31 9 -3 5 -12 9 -20 9 -9 0 -12 -5 -8
-11 4 -8 0 -9 -15 -4 -12 4 -21 2 -21 -4 0 -6 -4 -11 -10 -11 -5 0 -7 8 -4 17
5 15 3 15 -10 -1 -11 -13 -16 -15 -16 -6 0 7 -3 10 -7 7 -3 -4 -13 -1 -21 6
-11 8 -14 8 -9 0 4 -6 3 -14 -3 -18 -5 -3 -10 0 -10 7 0 9 -3 9 -10 -2 -6 -10
-10 -11 -10 -2 0 6 -5 12 -11 12 -5 0 -7 -6 -3 -12 6 -10 4 -10 -8 0 -9 7 -28
11 -42 8 -15 -3 -24 -1 -21 4 7 11 -63 6 -73 -5 -4 -5 0 -4 8 0 13 8 13 7 1
-8 -15 -18 -26 -23 -16 -7 3 6 -1 13 -9 16 -9 3 -13 11 -9 18 4 6 -2 4 -13 -4
-29 -22 -30 -24 -11 -17 10 4 16 3 12 -2 -8 -13 -50 -7 -71 10 -14 11 -16 11
-10 0 7 -10 3 -12 -13 -6 -14 4 -21 2 -21 -6 0 -8 -5 -7 -17 3 -21 18 -55 20
-65 4 -5 -8 -8 -7 -8 1 0 7 -7 10 -15 7 -8 -4 -12 -10 -9 -15 8 -14 -3 -10
-20 7 -9 8 -16 11 -16 5 0 -7 -8 -7 -26 -1 -16 7 -23 7 -19 0 3 -6 1 -10 -4
-10 -6 0 -11 6 -11 13 0 9 -3 8 -9 -2 -5 -7 -14 -10 -20 -7 -6 4 -11 4 -11 -1
0 -13 -114 -9 -123 5 -6 9 -13 9 -28 2 -10 -6 -19 -8 -19 -4 0 3 -8 0 -17 -7
-11 -10 -14 -10 -9 -1 4 7 1 12 -8 12 -9 0 -16 -6 -16 -12 0 -9 -3 -10 -8 -2
-4 6 -18 16 -32 23 -22 11 -23 11 -7 -2 16 -14 16 -15 -8 -20 -20 -3 -25 -1
-21 10 4 11 1 11 -14 3 -15 -8 -20 -8 -20 2 0 10 -2 10 -9 -1 -6 -9 -18 -11
-35 -7 -16 4 -26 2 -26 -4 0 -7 -6 -8 -19 0 -14 7 -21 6 -24 -3 -3 -9 -7 -9
-19 0 -11 10 -17 10 -28 0 -10 -9 -11 -9 -6 0 5 10 -1 11 -25 6 -20 -4 -30 -2
-26 4 3 5 0 10 -8 10 -8 0 -15 -5 -15 -11 0 -6 -5 -5 -12 2 -18 18 -32 14 -17
-5 13 -15 12 -15 -8 -3 -12 8 -19 19 -16 25 2 5 -5 -1 -16 -15 -13 -16 -24
-21 -28 -14 -11 15 -41 25 -48 15 -3 -5 -15 -7 -27 -3 -14 3 -19 1 -14 -6 5
-8 2 -10 -8 -6 -9 3 -14 10 -11 15 3 4 -7 2 -22 -6 -20 -10 -27 -22 -28 -42 0
-16 -6 -28 -13 -28 -7 0 -16 -6 -20 -13 -5 -6 -20 -11 -34 -10 -15 1 -24 6
-22 10 3 4 -8 14 -23 22 l-28 15 26 1 c19 0 28 -6 32 -22 5 -18 8 -19 21 -9 9
8 13 18 9 25 -4 6 1 4 12 -4 16 -14 17 -13 11 7 -5 16 -2 26 13 35 12 7 21 16
21 19 0 12 -35 4 -47 -11 -11 -13 -12 -12 -13 5 0 11 -3 16 -8 10 -4 -6 -25
-11 -47 -11 -22 0 -43 5 -47 11 -5 6 -8 6 -8 -2 0 -7 -5 -13 -11 -13 -5 0 -7
4 -4 10 3 6 -1 7 -9 4 -9 -3 -13 -10 -10 -15 3 -5 -2 -9 -10 -9 -9 0 -16 8
-16 18 0 10 -3 13 -8 6 -7 -12 -74 -15 -67 -4 2 4 -7 5 -20 2 -14 -2 -22 -8
-19 -13 9 -15 -8 -10 -29 9 -11 9 -17 11 -13 5 8 -15 -3 -17 -24 -4 -8 6 -19
7 -24 3 -6 -3 -31 -8 -56 -9 -33 -3 -41 -1 -30 7 13 8 13 10 -2 10 -22 0 -31
-31 -19 -62 11 -29 4 -42 -26 -46 -15 -2 -23 2 -23 12 0 8 -5 18 -11 22 -8 4
-9 -1 -5 -17 3 -13 3 -18 0 -11 -3 6 -11 9 -17 5 -17 -10 -37 -13 -37 -4 0 4
-11 8 -25 9 -19 1 -23 -2 -19 -16 5 -14 4 -14 -4 -3 -7 9 -7 21 -2 32 5 9 7
19 4 21 -2 3 7 3 22 0 17 -3 22 -7 14 -12 -9 -5 -6 -10 10 -15 12 -4 27 -2 33
4 8 8 6 11 -6 11 -9 0 -17 5 -17 10 0 7 6 7 20 0 11 -6 20 -8 20 -5 0 3 9 1
20 -5 11 -6 18 -15 15 -20 -3 -4 4 -6 15 -3 19 5 20 6 3 20 -10 8 -12 12 -5 8
15 -8 15 0 1 26 -6 12 -17 18 -25 15 -8 -3 -12 -2 -9 3 3 5 1 12 -5 16 -5 3
-10 1 -10 -5 0 -6 -4 -9 -9 -5 -5 3 -12 1 -16 -5 -4 -7 -13 -5 -27 4 -13 9
-29 12 -46 7 -15 -5 -36 -5 -47 -1 -12 5 -29 2 -44 -7 -21 -13 -26 -14 -35 -2
-6 8 -22 14 -35 15 -22 1 -23 0 -6 -13 23 -16 11 -17 -18 -1 -24 12 -68 18
-61 7 2 -4 -8 -6 -21 -6 -14 0 -28 3 -31 8 -3 5 -12 9 -20 9 -9 0 -12 -5 -8
-11 4 -8 0 -9 -15 -4 -12 4 -21 2 -21 -4 0 -6 -4 -11 -10 -11 -5 0 -7 8 -4 17
5 15 3 15 -10 -1 -11 -13 -16 -15 -16 -6 0 7 -3 10 -7 7 -3 -4 -13 -1 -21 6
-11 8 -14 8 -9 0 4 -6 3 -14 -3 -18 -5 -3 -10 0 -10 7 0 9 -3 9 -10 -2 -6 -10
-10 -11 -10 -2 0 6 -5 12 -11 12 -5 0 -7 -6 -3 -13 6 -9 4 -9 -8 1 -9 7 -28
11 -42 8 -15 -3 -24 -1 -21 4 7 11 -63 6 -73 -5 -4 -5 -1 -5 6 -1 18 10 15 1
-5 -15 -12 -10 -14 -10 -9 -1 4 7 1 15 -8 18 -9 3 -13 11 -9 18 4 6 -2 4 -13
-4 -29 -22 -30 -24 -11 -17 10 4 16 3 12 -2 -8 -13 -50 -7 -71 10 -14 11 -16
11 -10 0 7 -10 3 -12 -13 -6 -14 4 -21 2 -21 -6 0 -8 -5 -7 -17 3 -21 18 -55
20 -65 4 -5 -8 -8 -7 -8 1 0 7 -7 10 -15 7 -8 -4 -12 -10 -9 -15 8 -14 -3 -10
-20 7 -9 8 -16 11 -16 5 0 -7 -8 -7 -26 -1 -16 7 -23 7 -19 0 3 -6 1 -10 -4
-10 -6 0 -11 6 -11 13 0 9 -3 8 -9 -2 -5 -7 -14 -10 -20 -7 -6 4 -11 4 -11 -1
0 -13 -114 -9 -123 5 -6 9 -13 9 -28 2 -10 -6 -19 -8 -19 -4 0 3 -8 0 -17 -7
-11 -10 -14 -10 -9 -1 4 7 1 12 -8 12 -9 0 -16 -6 -16 -12 0 -9 -3 -10 -8 -2
-4 6 -18 16 -32 23 -22 11 -23 11 -7 -2 16 -14 16 -15 -8 -20 -20 -3 -25 -1
-21 10 4 11 1 11 -14 3 -15 -8 -20 -8 -20 2 0 10 -2 10 -9 -1 -6 -9 -18 -11
-35 -7 -16 4 -26 2 -26 -4 0 -7 -6 -8 -19 0 -14 7 -21 6 -24 -3 -3 -9 -7 -9
-19 0 -11 10 -17 10 -28 0 -10 -9 -11 -9 -6 0 5 10 -1 11 -25 6 -20 -4 -30 -2
-26 4 3 5 0 10 -8 10 -8 0 -15 -5 -15 -11 0 -6 -5 -5 -12 2 -18 18 -32 14 -17
-5 13 -15 12 -15 -8 -3 -12 8 -19 19 -16 25 2 5 -5 -1 -16 -15 -13 -16 -24
-21 -28 -14 -11 15 -41 25 -48 15 -3 -5 -15 -7 -27 -3 -14 3 -19 1 -14 -6 5
-8 2 -10 -8 -6 -9 3 -14 10 -11 15 3 4 -7 2 -22 -6 -20 -10 -27 -22 -28 -42 0
-16 -6 -28 -13 -28 -7 0 -16 -6 -20 -13 -5 -6 -20 -11 -34 -10 -15 1 -24 6
-22 10 3 4 -8 14 -23 22 l-28 15 26 1 c19 0 28 -6 32 -22 5 -18 8 -19 21 -9 9
8 13 18 9 25 -4 6 1 4 12 -4 16 -14 17 -13 11 7 -5 16 -2 26 13 35 12 7 21 16
21 19 0 12 -35 4 -47 -11 -11 -13 -12 -12 -13 5 0 11 -3 16 -8 10 -9 -14 -85
-14 -94 0 -5 6 -8 6 -8 -2 0 -7 -5 -13 -11 -13 -5 0 -7 4 -4 10 3 6 -1 7 -9 4
-9 -3 -13 -10 -10 -15 3 -5 -2 -9 -10 -9 -9 0 -16 8 -16 18 0 10 -3 13 -8 6
-7 -12 -74 -15 -67 -4 2 4 -7 5 -20 2 -14 -2 -22 -8 -19 -13 9 -15 -8 -10 -29
9 -11 9 -17 11 -13 4 8 -14 -3 -16 -24 -3 -8 6 -19 7 -24 3 -6 -3 -31 -8 -56
-9 -33 -3 -41 -1 -30 7 13 8 13 10 -2 10 -22 0 -31 -31 -19 -62 11 -29 4 -42
-26 -46 -15 -2 -23 2 -23 12 0 8 -5 18 -11 22 -8 4 -9 -1 -5 -17 3 -13 3 -18
0 -11 -3 6 -11 9 -17 5 -17 -10 -37 -13 -37 -4 0 4 -11 8 -25 9 -19 1 -23 -2
-19 -16 5 -14 4 -14 -4 -3 -7 9 -7 21 -2 32 5 9 7 19 4 21 -2 3 7 3 22 0 17
-3 22 -7 14 -12 -9 -5 -6 -10 10 -15 12 -4 27 -2 33 4 8 8 6 11 -6 11 -9 0
-17 5 -17 10 0 7 6 7 20 0 11 -6 20 -8 20 -5 0 3 9 1 20 -5 11 -6 18 -15 15
-20 -3 -4 4 -6 15 -3 19 5 20 6 3 20 -10 8 -12 12 -5 8 15 -8 15 0 1 26 -6 12
-17 18 -25 15 -8 -3 -12 -2 -9 3 3 5 1 12 -5 16 -5 3 -10 1 -10 -5 0 -6 -4 -9
-9 -5 -5 3 -12 1 -16 -5 -4 -7 -13 -5 -27 4 -13 9 -29 12 -46 7 -15 -5 -36 -5
-47 -1 -12 5 -29 2 -44 -7 -21 -13 -26 -14 -35 -2 -6 8 -22 14 -35 15 -22 1
-23 0 -6 -13 23 -16 11 -17 -18 -1 -24 12 -68 18 -61 7 2 -4 -8 -7 -21 -7 -14
0 -28 4 -31 9 -3 5 -12 9 -20 9 -9 0 -12 -5 -8 -11 4 -8 0 -9 -15 -4 -12 4
-21 2 -21 -4 0 -6 -4 -11 -10 -11 -5 0 -7 8 -4 18 5 14 3 14 -10 -2 -11 -13
-16 -15 -16 -6 0 7 -3 10 -7 7 -3 -4 -13 -1 -21 6 -11 8 -14 8 -9 0 4 -6 3
-14 -3 -18 -5 -3 -10 0 -10 7 0 9 -3 9 -10 -2 -6 -10 -10 -11 -10 -2 0 6 -5
12 -11 12 -5 0 -7 -6 -3 -12 6 -10 4 -10 -8 0 -9 7 -28 11 -42 8 -15 -3 -24
-1 -21 4 7 11 -63 6 -73 -5 -4 -5 -1 -5 6 -1 18 10 15 1 -5 -15 -12 -10 -14
-10 -9 -1 4 7 1 15 -8 18 -9 3 -13 11 -9 18 4 6 -2 4 -13 -4 -29 -22 -30 -24
-11 -17 10 4 16 3 12 -2 -8 -13 -50 -7 -71 10 -14 11 -16 11 -10 0 7 -10 3
-12 -13 -6 -14 4 -21 2 -21 -6 0 -8 -5 -7 -18 3 -20 18 -54 20 -64 4 -5 -8 -8
-7 -8 1 0 7 -7 10 -15 7 -8 -4 -12 -10 -9 -15 8 -14 -3 -10 -20 7 -9 8 -16 11
-16 5 0 -7 -8 -7 -26 -1 -16 7 -23 7 -19 0 3 -6 1 -10 -4 -10 -6 0 -11 6 -11
13 0 9 -3 8 -9 -2 -5 -7 -14 -10 -20 -7 -6 4 -11 4 -11 -1 0 -13 -114 -9 -123
5 -6 9 -13 9 -28 2 -10 -6 -19 -8 -19 -4 0 3 -8 0 -17 -7 -11 -10 -14 -10 -9
-1 4 7 1 12 -8 12 -9 0 -16 -6 -16 -12 0 -9 -3 -10 -8 -2 -4 6 -18 16 -32 23
-22 11 -23 11 -7 -2 16 -14 16 -15 -8 -20 -20 -3 -25 -1 -21 10 4 11 1 11 -14
3 -15 -8 -20 -8 -20 2 0 10 -2 10 -9 -1 -6 -9 -18 -11 -35 -7 -16 4 -26 2 -26
-4 0 -7 -6 -8 -19 0 -14 7 -21 6 -24 -3 -3 -9 -7 -9 -19 0 -11 10 -17 10 -28
0 -10 -9 -11 -9 -6 0 5 10 -1 11 -25 6 -20 -4 -30 -2 -26 4 3 5 0 10 -8 10 -8
0 -15 -5 -15 -11 0 -6 -5 -5 -12 2 -18 18 -32 14 -17 -5 13 -15 12 -15 -8 -3
-12 8 -19 19 -16 25 2 5 -5 -1 -16 -15 -13 -16 -24 -21 -28 -14 -11 15 -41 25
-48 15 -3 -5 -15 -7 -27 -3 -14 3 -19 1 -14 -6 5 -8 2 -10 -8 -6 -9 3 -14 10
-11 15 3 4 -7 2 -22 -6 -20 -10 -27 -22 -28 -42 0 -16 -6 -28 -13 -28 -7 0
-16 -6 -20 -13 -5 -6 -20 -11 -34 -10 -15 1 -24 6 -22 10 3 4 -8 14 -23 22
l-28 15 26 1 c19 0 28 -6 32 -22 5 -18 8 -19 21 -9 9 8 13 18 9 25 -4 6 1 4
12 -4 16 -14 17 -13 11 7 -5 16 -2 26 13 35 12 7 21 16 21 19 0 12 -35 4 -47
-11 -11 -13 -12 -12 -13 5 0 11 -3 16 -8 10 -4 -6 -25 -11 -47 -11 -22 0 -43
5 -47 11 -5 6 -8 6 -8 -2 0 -7 -5 -13 -11 -13 -5 0 -7 4 -4 10 3 6 -1 7 -9 4
-9 -3 -13 -10 -10 -15 3 -5 -2 -9 -10 -9 -9 0 -16 8 -16 18 0 10 -3 13 -8 6
-7 -12 -74 -15 -67 -4 2 4 -7 5 -20 2 -14 -2 -22 -8 -19 -13 9 -15 -8 -10 -29
9 -11 9 -17 11 -13 5 8 -15 -3 -17 -24 -4 -8 6 -19 7 -24 3 -6 -3 -31 -8 -56
-9 -33 -3 -41 -1 -30 7 13 8 13 10 -2 10 -22 0 -31 -31 -19 -62 11 -29 4 -42
-26 -46 -15 -2 -23 2 -23 12 0 8 -5 18 -11 22 -8 4 -9 -1 -5 -17 3 -13 3 -18
0 -11 -3 6 -11 9 -17 5 -17 -10 -37 -13 -37 -4 0 4 -11 8 -25 9 -19 1 -23 -2
-19 -16 5 -14 4 -14 -4 -3 -7 9 -7 21 -2 32 5 9 7 19 4 21 -2 3 7 3 22 0 17
-3 22 -7 14 -12 -9 -5 -6 -10 10 -15 12 -4 27 -2 33 4 8 8 6 11 -6 11 -9 0
-17 5 -17 10 0 7 6 7 20 0 11 -6 20 -8 20 -5 0 3 9 1 20 -5 11 -6 18 -15 15
-20 -3 -4 4 -6 15 -3 19 5 20 6 3 20 -10 8 -12 12 -5 8 15 -8 15 0 1 26 -6 12
-17 18 -25 15 -8 -3 -12 -2 -9 3 3 5 1 12 -5 16 -5 3 -10 1 -10 -5 0 -6 -4 -9
-9 -5 -5 3 -12 1 -16 -5 -4 -7 -13 -5 -27 4 -13 9 -29 12 -46 7 -15 -5 -36 -5
-47 -1 -12 5 -29 2 -44 -7 -21 -13 -26 -14 -35 -2 -6 8 -22 14 -35 15 -22 1
-23 0 -6 -13 23 -16 11 -17 -18 -1 -24 12 -68 18 -61 7 2 -4 -8 -7 -21 -7 -14
1 -28 4 -31 9 -3 5 -12 9 -20 9 -9 0 -12 -5 -8 -11 4 -8 0 -9 -15 -4 -12 4
-21 2 -21 -4 0 -6 -4 -11 -10 -11 -5 0 -7 8 -4 18 5 14 3 14 -10 -2 -11 -13
-16 -15 -16 -6 0 7 -3 10 -7 7 -3 -4 -13 -1 -21 6 -11 8 -14 8 -9 0 4 -6 3
-14 -3 -18 -5 -3 -10 0 -10 7 0 9 -3 9 -10 -2 -6 -10 -10 -11 -10 -2 0 6 -5
12 -11 12 -5 0 -7 -6 -3 -12 6 -10 4 -10 -8 0 -9 7 -28 11 -42 8 -15 -3 -24
-1 -21 4 7 11 -63 6 -73 -5 -4 -5 0 -4 8 0 13 8 13 7 1 -8 -15 -18 -26 -23
-16 -7 3 6 -1 13 -9 16 -9 3 -13 11 -9 18 4 6 -2 4 -13 -4 -29 -22 -30 -24
-11 -17 10 4 16 3 12 -2 -8 -13 -50 -7 -71 10 -14 11 -16 11 -10 0 7 -10 3
-12 -13 -6 -14 4 -21 2 -21 -6 0 -8 -5 -7 -17 3 -21 18 -55 20 -65 4 -5 -8 -8
-7 -8 1 0 7 -7 10 -15 7 -8 -4 -12 -10 -9 -15 8 -14 -3 -10 -20 7 -9 8 -16 11
-16 5 0 -7 -8 -7 -26 -1 -16 7 -23 7 -19 0 3 -6 1 -10 -4 -10 -6 0 -11 6 -11
13 0 9 -3 8 -9 -2 -5 -7 -14 -10 -20 -7 -6 4 -11 4 -11 -1 0 -13 -114 -9 -123
5 -6 9 -13 9 -28 2 -10 -6 -19 -8 -19 -4 0 3 -8 0 -17 -7 -11 -10 -14 -10 -9
-2 4 8 1 13 -8 13 -9 0 -16 -6 -16 -12 0 -9 -3 -10 -8 -2 -4 6 -18 16 -32 23
-22 11 -23 11 -7 -2 16 -14 16 -15 -8 -20 -20 -3 -25 -1 -21 10 4 11 1 11 -14
3 -15 -8 -20 -8 -20 2 0 10 -2 10 -9 -1 -6 -9 -18 -11 -35 -7 -16 4 -26 2 -26
-4 0 -7 -6 -8 -19 0 -14 7 -21 6 -24 -3 -3 -9 -7 -9 -19 0 -11 10 -17 10 -28
0 -10 -9 -11 -9 -6 0 5 10 -1 11 -25 6 -20 -4 -30 -2 -26 4 3 5 0 10 -8 10 -8
0 -15 -5 -15 -11 0 -6 -5 -5 -12 2 -18 18 -32 14 -17 -5 13 -15 12 -15 -8 -3
-12 8 -19 19 -16 25 2 5 -5 -1 -16 -15 -13 -16 -24 -21 -28 -14 -11 15 -41 25
-48 15 -3 -5 -15 -7 -27 -3 -14 3 -19 1 -14 -6 5 -8 2 -10 -8 -6 -9 3 -14 10
-11 15 3 4 -7 2 -22 -6 -20 -10 -27 -22 -28 -42 0 -16 -6 -28 -13 -28 -7 0
-16 -6 -20 -13 -5 -6 -20 -11 -34 -10 -15 1 -24 6 -22 10 3 4 -8 14 -23 22
l-28 15 26 1 c19 0 28 -6 32 -22 5 -18 8 -19 21 -9 9 8 13 18 9 25 -4 6 1 4
12 -4 16 -14 17 -13 11 7 -5 16 -2 26 13 35 12 7 21 16 21 19 0 12 -35 4 -47
-11 -11 -13 -12 -12 -13 5 0 11 -3 16 -8 10 -4 -6 -25 -11 -47 -11 -22 0 -43
5 -47 11 -5 6 -8 6 -8 -2 0 -7 -5 -13 -11 -13 -5 0 -7 4 -4 10 3 6 -1 7 -9 4
-9 -3 -13 -10 -10 -15 3 -5 -2 -9 -10 -9 -9 0 -16 8 -16 18 0 10 -3 13 -8 6
-7 -12 -74 -15 -67 -4 2 4 -7 5 -20 2 -14 -2 -22 -8 -19 -13 9 -15 -8 -10 -29
9 -11 9 -17 11 -13 5 8 -15 -3 -17 -24 -4 -8 6 -19 7 -24 3 -6 -3 -31 -8 -56
-9 -33 -3 -41 -1 -30 7 13 8 13 10 -2 10 -22 0 -31 -31 -19 -62 11 -29 4 -42
-26 -46 -15 -2 -23 2 -23 12 0 8 -5 18 -11 22 -8 4 -9 -1 -5 -17 3 -13 3 -18
0 -11 -3 6 -11 9 -17 5 -17 -10 -37 -13 -37 -4 0 4 -11 8 -25 9 -19 1 -23 -2
-19 -16 5 -14 4 -14 -4 -3 -7 9 -7 21 -2 32 5 9 7 19 4 21 -2 3 7 3 22 0 17
-3 22 -7 14 -12 -9 -5 -6 -10 10 -15 12 -4 27 -2 33 4 8 8 6 11 -6 11 -9 0
-17 5 -17 10 0 7 6 7 20 0 11 -6 20 -8 20 -5 0 3 9 1 20 -5 11 -6 18 -15 15
-20 -3 -4 4 -6 15 -3 19 5 20 6 3 20 -10 8 -12 12 -5 8 15 -8 15 0 1 26 -6 12
-17 18 -25 15 -8 -3 -12 -2 -9 3 3 5 1 12 -5 16 -5 3 -10 1 -10 -5 0 -6 -4 -9
-9 -5 -5 3 -12 1 -16 -5 -4 -7 -13 -5 -27 4 -13 9 -29 12 -46 7 -15 -5 -36 -5
-47 -1 -12 5 -29 2 -44 -7 -21 -13 -26 -14 -35 -2 -6 8 -22 14 -35 15 -22 1
-23 0 -6 -13 23 -16 11 -17 -18 -1 -24 12 -68 18 -61 7 2 -4 -8 -6 -21 -6 -14
0 -28 3 -31 8 -3 5 -12 9 -20 9 -9 0 -12 -5 -8 -11 4 -8 0 -9 -15 -4 -12 4
-21 2 -21 -4 0 -6 -4 -11 -10 -11 -5 0 -7 8 -4 18 5 14 3 14 -10 -2 -11 -13
-16 -15 -16 -6 0 7 -3 10 -7 7 -3 -4 -13 -1 -21 6 -11 8 -14 8 -9 0 4 -6 3
-14 -3 -18 -5 -3 -10 0 -10 7 0 9 -3 9 -10 -2 -6 -10 -10 -11 -10 -2 0 6 -5
12 -11 12 -5 0 -7 -6 -3 -12 6 -10 4 -10 -8 0 -9 7 -28 11 -42 8 -15 -3 -24
-1 -21 4 7 11 -63 6 -73 -5 -4 -5 -1 -5 6 -1 18 10 15 1 -5 -15 -12 -10 -14
-10 -9 -1 4 7 1 15 -8 18 -9 3 -13 11 -9 18 4 6 -2 4 -13 -4 -29 -22 -30 -24
-11 -17 10 4 16 3 12 -2 -8 -13 -50 -7 -71 10 -14 11 -16 11 -10 0 7 -10 3
-12 -13 -6 -14 4 -21 2 -21 -6 0 -8 -5 -7 -18 3 -20 18 -54 20 -64 4 -5 -8 -8
-7 -8 1 0 7 -7 10 -15 7 -8 -4 -12 -10 -9 -15 8 -14 -3 -10 -20 7 -9 8 -16 11
-16 5 0 -7 -8 -7 -26 -1 -16 7 -23 7 -19 0 3 -6 1 -10 -4 -10 -6 0 -11 6 -11
13 0 9 -3 8 -9 -2 -5 -7 -14 -10 -20 -7 -6 4 -11 4 -11 -1 0 -13 -114 -9 -123
5 -6 9 -13 9 -28 2 -10 -6 -19 -8 -19 -4 0 3 -8 0 -17 -7 -11 -10 -14 -10 -9
-1 4 7 1 12 -8 12 -9 0 -16 -6 -16 -12 0 -9 -3 -10 -8 -2 -4 6 -18 16 -32 23
-22 11 -23 11 -7 -2 16 -14 16 -15 -8 -20 -20 -3 -25 -1 -21 10 4 11 1 11 -14
3 -15 -8 -20 -8 -20 2 0 10 -2 10 -9 -1 -6 -9 -18 -11 -35 -7 -16 4 -26 2 -26
-4 0 -7 -6 -8 -19 0 -14 7 -21 6 -24 -3 -3 -9 -7 -9 -19 0 -11 10 -17 10 -28
0 -10 -9 -11 -9 -6 0 5 10 -1 11 -25 6 -20 -4 -30 -2 -26 4 3 5 0 10 -8 10 -8
0 -15 -5 -15 -11 0 -6 -5 -5 -12 2 -18 18 -32 14 -17 -5 13 -15 12 -15 -8 -3
-12 8 -19 19 -16 25 2 5 -5 -1 -16 -15 -13 -16 -24 -21 -28 -14 -11 15 -41 25
-48 15 -3 -5 -15 -7 -27 -3 -14 3 -19 1 -14 -6 5 -8 2 -10 -8 -6 -9 3 -14 10
-11 15 3 4 -7 2 -22 -6 -20 -10 -27 -22 -28 -42 0 -16 -6 -28 -13 -28 -7 0
-16 -6 -20 -13 -5 -6 -20 -11 -34 -10 -15 1 -24 6 -22 10 3 4 -8 14 -23 22
l-28 15 26 1 c19 0 28 -6 32 -22 5 -18 8 -19 21 -9 9 8 13 18 9 25 -4 6 1 4
12 -4 16 -14 17 -13 11 7 -5 16 -2 26 13 35 12 7 21 16 21 19 0 12 -35 4 -47
-11 -11 -13 -12 -12 -13 5 0 11 -3 16 -8 10 -4 -6 -25 -11 -47 -11 -22 0 -43
5 -47 11 -5 6 -8 6 -8 -2 0 -7 -5 -13 -11 -13 -5 0 -7 4 -4 10 3 6 -1 7 -9 4
-9 -3 -13 -10 -10 -15 3 -5 -2 -9 -10 -9 -9 0 -16 8 -16 18 0 10 -3 13 -8 6
-7 -12 -74 -15 -67 -4 2 4 -7 5 -20 2 -14 -2 -22 -8 -19 -13 9 -15 -8 -10 -29
9 -11 9 -17 11 -13 5 8 -15 -3 -17 -24 -4 -8 6 -19 7 -24 3 -6 -3 -31 -8 -56
-9 -33 -3 -41 -1 -30 7 13 8 13 10 -2 10 -22 0 -31 -31 -19 -62 11 -29 4 -42
-26 -46 -15 -2 -23 2 -23 12 0 8 -5 18 -11 22 -8 4 -9 -1 -5 -17 3 -13 3 -18
0 -11 -3 6 -11 9 -17 5 -17 -10 -37 -13 -37 -4 0 4 -11 8 -25 9 -19 1 -23 -2
-19 -16 5 -14 4 -14 -4 -3 -7 9 -7 21 -2 32 5 9 7 19 4 21 -2 3 7 3 22 0 17
-3 22 -7 14 -12 -9 -5 -6 -10 10 -15 12 -4 27 -2 33 4 8 8 6 11 -6 11 -9 0
-17 5 -17 10 0 7 6 7 20 0 11 -6 20 -8 20 -5 0 3 9 1 20 -5 11 -6 18 -15 15
-20 -3 -4 4 -6 15 -3 19 5 20 6 3 20 -10 8 -12 12 -5 8 15 -8 15 0 1 26 -6 12
-17 18 -25 15 -8 -3 -12 -2 -9 3 3 5 1 12 -5 16 -5 3 -10 1 -10 -5 0 -6 -4 -9
-9 -5 -5 3 -12 1 -16 -5 -4 -7 -13 -5 -27 4 -13 9 -29 12 -46 7 -15 -5 -36 -5
-47 -1 -12 5 -29 2 -44 -7 -21 -13 -26 -14 -35 -2 -6 8 -22 14 -35 15 -22 1
-23 0 -6 -13 23 -16 11 -17 -18 -1 -24 12 -68 18 -61 7 2 -4 -8 -6 -21 -6 -14
0 -28 3 -31 8 -3 5 -12 9 -20 9 -9 0 -12 -5 -8 -11 4 -8 0 -9 -15 -4 -12 4
-21 2 -21 -4 0 -6 -4 -11 -10 -11 -5 0 -7 8 -4 18 5 14 3 14 -10 -2 -11 -13
-16 -15 -16 -6 0 7 -3 10 -7 7 -3 -4 -13 -1 -21 6 -11 8 -14 8 -9 0 4 -6 3
-14 -3 -18 -5 -3 -10 0 -10 7 0 9 -3 9 -10 -2 -6 -10 -10 -11 -10 -2 0 6 -5
12 -11 12 -5 0 -7 -6 -3 -12 6 -10 4 -10 -8 0 -9 7 -28 11 -42 8 -15 -3 -24
-1 -21 4 7 11 -63 6 -73 -5 -4 -5 -1 -5 6 -1 18 10 15 1 -5 -15 -12 -10 -14
-10 -9 -1 4 7 1 15 -8 18 -9 3 -13 11 -9 18 4 6 -2 4 -13 -4 -29 -22 -30 -24
-11 -17 10 4 16 3 12 -2 -8 -13 -50 -7 -71 10 -14 11 -16 11 -10 0 7 -10 3
-12 -13 -6 -14 4 -21 2 -21 -6 0 -8 -5 -7 -18 3 -20 18 -54 20 -64 4 -5 -8 -8
-7 -8 1 0 7 -7 10 -15 7 -8 -4 -12 -10 -9 -15 8 -14 -3 -10 -20 7 -9 8 -16 11
-16 5 0 -7 -8 -7 -26 -1 -16 7 -23 7 -19 0 3 -6 1 -10 -4 -10 -6 0 -11 6 -11
13 0 9 -3 8 -9 -2 -5 -7 -14 -10 -20 -7 -6 4 -11 4 -11 -1 0 -13 -114 -9 -123
5 -6 9 -13 9 -28 2 -10 -6 -19 -8 -19 -4 0 3 -8 0 -17 -7 -11 -10 -14 -10 -9
-1 4 7 1 12 -8 12 -9 0 -16 -6 -16 -12 0 -9 -3 -10 -8 -2 -4 6 -18 16 -32 23
-22 11 -23 11 -7 -2 16 -14 16 -15 -8 -20 -20 -3 -25 -1 -21 10 4 11 1 11 -14
3 -15 -8 -20 -8 -20 2 0 10 -2 10 -9 -1 -6 -9 -18 -11 -35 -7 -16 4 -26 2 -26
-4 0 -7 -6 -8 -19 0 -14 7 -21 6 -24 -3 -3 -9 -7 -9 -19 0 -11 10 -17 10 -28
0 -10 -9 -11 -9 -6 0 5 10 -1 11 -25 6 -20 -4 -30 -2 -26 4 3 5 0 10 -8 10 -8
0 -15 -5 -15 -11 0 -6 -5 -5 -12 2 -18 18 -32 14 -17 -5 13 -15 12 -15 -8 -3
-12 8 -19 19 -16 25 2 5 -5 -1 -16 -15 -13 -16 -24 -21 -28 -14 -11 15 -41 25
-48 15 -3 -5 -15 -7 -27 -3 -14 3 -19 1 -14 -6 5 -8 2 -10 -8 -6 -9 3 -14 10
-11 15 3 4 -7 2 -22 -6 -20 -10 -27 -22 -28 -42 0 -16 -6 -28 -13 -28 -7 0
-16 -6 -20 -13 -5 -6 -20 -11 -34 -10 -15 1 -24 6 -22 10 3 4 -8 14 -23 22
l-28 15 26 1 c19 0 28 -6 32 -22 5 -18 8 -19 21 -9 9 8 13 18 9 25 -4 6 1 4
12 -4 16 -14 17 -13 11 7 -5 16 -2 26 13 35 12 7 21 16 21 19 0 12 -35 4 -47
-11 -11 -13 -12 -12 -13 5 0 11 -3 16 -8 10 -4 -6 -25 -11 -47 -11 -22 0 -43
5 -47 11 -5 6 -8 6 -8 -2 0 -7 -5 -13 -11 -13 -5 0 -7 4 -4 10 3 6 -1 7 -9 4
-9 -3 -13 -10 -10 -15 3 -5 -2 -9 -10 -9 -9 0 -16 8 -16 18 0 10 -3 13 -8 6
-7 -12 -74 -15 -67 -4 2 4 -7 5 -20 2 -14 -2 -22 -8 -19 -13 9 -15 -8 -10 -29
9 -11 9 -17 11 -13 5 8 -15 -3 -17 -24 -4 -8 6 -19 7 -24 3 -6 -3 -31 -8 -56
-9 -33 -3 -41 -1 -30 7 13 8 13 10 -2 10 -22 0 -31 -31 -19 -62 11 -29 4 -42
-26 -46 -15 -2 -23 2 -23 12 0 8 -5 18 -11 22 -8 4 -9 -1 -5 -17 3 -13 3 -18
0 -11 -3 6 -11 9 -17 5 -17 -10 -37 -13 -37 -4 0 4 -11 8 -25 9 -19 1 -23 -2
-19 -16 5 -14 4 -14 -4 -3 -7 9 -7 21 -2 32 5 9 7 19 4 21 -2 3 7 3 22 0 17
-3 22 -7 14 -12 -9 -5 -6 -10 10 -15 12 -4 27 -2 33 4 8 8 6 11 -6 11 -9 0
-17 5 -17 10 0 7 6 7 20 0 11 -6 20 -8 20 -5 0 3 9 1 20 -5 11 -6 18 -15 15
-20 -3 -4 4 -6 15 -3 19 5 20 6 3 20 -10 8 -12 12 -5 8 15 -8 15 0 1 26 -6 12
-17 18 -25 15 -8 -3 -12 -2 -9 3 3 5 1 12 -5 16 -5 3 -10 1 -10 -5 0 -6 -4 -9
-9 -5 -5 3 -12 1 -16 -5 -4 -7 -13 -5 -27 4 -13 9 -29 12 -46 7 -15 -5 -36 -5
-47 -1 -12 5 -29 2 -44 -7 -21 -13 -26 -14 -35 -2 -6 8 -22 14 -35 15 -22 1
-23 0 -6 -13 23 -16 11 -17 -18 -1 -24 12 -68 18 -61 7 2 -4 -8 -6 -21 -6 -14
0 -28 3 -31 8 -3 5 -12 9 -20 9 -9 0 -12 -5 -8 -11 4 -8 0 -9 -15 -4 -12 4
-21 2 -21 -4 0 -6 -4 -11 -10 -11 -5 0 -7 8 -4 18 5 14 3 14 -10 -2 -11 -13
-16 -15 -16 -6 0 7 -3 10 -7 7 -3 -4 -13 -1 -21 6 -11 8 -14 8 -9 0 4 -6 3
-14 -3 -18 -5 -3 -10 0 -10 7 0 9 -3 9 -10 -2 -6 -10 -10 -11 -10 -2 0 6 -5
12 -11 12 -5 0 -7 -6 -3 -12 6 -10 4 -10 -8 0 -9 7 -28 11 -42 8 -15 -3 -24
-1 -21 4 7 11 -63 6 -73 -5 -4 -5 0 -4 8 0 13 8 13 7 1 -8 -15 -18 -26 -23
-16 -7 3 6 -1 13 -9 16 -9 3 -13 11 -9 18 4 6 -2 4 -13 -4 -29 -22 -30 -24
-11 -17 10 4 16 3 12 -2 -8 -13 -50 -7 -71 10 -14 11 -16 11 -10 0 7 -10 3
-12 -13 -6 -14 4 -21 2 -21 -6 0 -8 -5 -7 -17 3 -21 18 -55 20 -65 4 -5 -8 -8
-7 -8 1 0 7 -7 10 -15 7 -8 -4 -12 -10 -9 -15 8 -14 -3 -10 -20 7 -9 8 -16 11
-16 5 0 -7 -8 -7 -26 -1 -16 7 -23 7 -19 0 3 -6 1 -10 -4 -10 -6 0 -11 6 -11
13 0 9 -3 8 -9 -2 -5 -7 -14 -10 -20 -7 -6 4 -11 4 -11 -1 0 -13 -114 -9 -123
5 -6 9 -13 9 -28 2 -10 -6 -19 -8 -19 -4 0 3 -8 0 -17 -7 -11 -10 -14 -10 -9
-1 4 7 1 12 -8 12 -9 0 -16 -6 -16 -12 0 -9 -3 -10 -8 -2 -4 6 -18 16 -32 23
-22 11 -23 11 -7 -2 16 -14 16 -15 -8 -20 -20 -3 -25 -1 -21 10 4 11 1 11 -14
3 -15 -8 -20 -8 -20 2 0 10 -2 10 -9 -1 -6 -9 -18 -11 -35 -7 -16 4 -26 2 -26
-4 0 -7 -6 -8 -19 0 -14 7 -21 6 -24 -3 -3 -9 -7 -9 -19 0 -11 10 -17 10 -28
0 -10 -9 -11 -9 -6 0 5 9 -1 11 -22 7 -17 -4 -32 -1 -37 5 -9 15 37 112 115
241 273 452 659 775 1165 975 66 26 121 49 123 50 4 3 -223 63 -288 75 -193
38 -526 51 -720 29z m-241 -1432 c12 3 19 9 16 12 -2 4 2 8 8 8 7 0 14 -8 14
-16 1 -12 -7 -16 -33 -15 -19 1 -32 -2 -29 -6 8 -14 75 -7 75 7 0 7 10 13 22
13 l22 0 -23 -17 c-23 -15 -23 -17 -6 -30 11 -7 14 -13 8 -13 -7 0 -15 5 -18
10 -3 6 -28 10 -54 10 -31 0 -53 5 -61 15 -7 8 -19 15 -26 15 -8 0 -11 6 -8
15 5 12 10 13 20 4 8 -6 14 -8 15 -3 1 5 5 -2 9 -16 7 -23 8 -22 10 10 1 31 2
32 10 13 6 -15 15 -20 29 -16z m172 6 c2 1 1 -2 -3 -7 -12 -15 -9 -28 4 -20 7
4 8 3 4 -4 -4 -6 -14 -8 -23 -5 -12 5 -14 3 -8 -8 5 -8 -1 -6 -13 5 -12 10
-19 22 -17 27 3 4 -3 12 -12 18 -10 6 -13 11 -7 11 5 0 15 -5 22 -12 9 -9 13
-7 18 7 7 16 8 16 19 2 7 -9 14 -16 16 -14z m552 13 c2 2 10 -2 17 -11 8 -10
9 -15 1 -15 -6 0 -11 5 -11 11 0 5 -5 7 -11 4 -6 -4 -8 -14 -5 -22 3 -8 1 -11
-4 -8 -6 3 -10 -1 -10 -9 0 -8 -5 -18 -12 -22 -7 -4 -8 -3 -4 4 4 7 5 12 2 12
-2 0 -12 3 -22 7 -12 5 -15 3 -9 -6 6 -10 2 -11 -16 -6 -13 5 -31 8 -39 9 -8
1 -18 6 -22 11 -5 6 -8 5 -8 -3 0 -10 -3 -10 -15 2 -17 17 -20 36 -5 36 6 0
10 -4 10 -9 0 -17 39 -19 43 -2 4 13 6 11 12 -6 8 -26 13 -27 35 -12 13 9 12
10 -2 5 -21 -6 -24 9 -4 17 8 3 16 1 19 -6 3 -9 9 -9 28 0 17 8 19 12 7 12 -9
1 -20 5 -23 11 -4 7 2 7 18 1 14 -6 27 -8 30 -5z m310 -9 c-5 -9 -3 -9 8 -1
16 12 59 16 58 6 -3 -21 3 -24 17 -6 8 10 13 13 9 7 -10 -20 4 -36 20 -23 9 8
14 6 18 -9 4 -17 2 -18 -19 -11 -14 6 -26 6 -29 0 -4 -6 -12 -10 -18 -10 -7 0
-6 4 3 10 8 5 11 10 5 11 -5 0 -18 2 -27 4 -11 2 -15 -2 -11 -11 3 -8 -1 -14
-11 -14 -9 0 -16 4 -16 8 0 5 -7 9 -15 9 -8 0 -15 -4 -15 -8 0 -16 -40 -16
-54 0 -24 26 -21 44 4 29 11 -7 18 -20 15 -28 -4 -12 -3 -12 7 1 7 9 21 15 31
13 13 -2 16 3 13 22 -3 14 -1 22 5 19 5 -4 6 -12 2 -18z m728 -5 c-6 -2 -9 -8
-5 -13 3 -5 1 -9 -5 -9 -6 0 -8 -6 -5 -13 3 -8 -2 -14 -11 -14 -18 0 -20 18
-2 36 10 11 10 13 0 7 -8 -5 -13 -1 -13 9 0 9 4 14 8 11 4 -2 14 -1 22 4 10 6
16 5 19 -2 2 -7 -1 -14 -8 -16z m50 -10 c8 -22 12 -24 20 -12 9 13 10 13 6 0
-7 -26 -28 -17 -43 18 -7 18 -9 30 -3 26 6 -3 15 -18 20 -32z m45 23 c-11 -8
-25 -15 -30 -15 -6 1 0 7 14 15 32 19 40 18 16 0z m703 -18 c12 3 19 9 16 12
-2 4 2 8 8 8 7 0 14 -8 14 -16 1 -12 -7 -16 -33 -15 -19 1 -32 -2 -29 -6 8
-14 75 -7 75 7 0 7 10 13 22 13 l22 0 -23 -17 c-23 -15 -23 -17 -6 -30 11 -7
14 -13 8 -13 -7 0 -15 5 -18 10 -3 6 -28 10 -54 10 -31 0 -53 5 -61 15 -7 8
-19 15 -26 15 -8 0 -11 6 -8 15 5 12 10 13 20 4 8 -6 14 -8 15 -3 1 5 5 -2 9
-16 7 -23 8 -22 10 10 1 31 2 32 10 13 6 -15 15 -20 29 -16z m172 6 c2 1 1 -2
-3 -7 -12 -15 -9 -28 4 -20 7 4 8 3 4 -4 -4 -6 -14 -8 -23 -5 -12 5 -14 3 -8
-8 5 -8 -1 -6 -13 5 -12 10 -19 22 -17 27 3 4 -3 12 -12 18 -10 6 -13 11 -7
11 5 0 15 -5 22 -12 9 -9 13 -7 18 7 7 16 8 16 19 2 7 -9 14 -16 16 -14z m552
13 c2 2 10 -2 17 -11 8 -10 9 -15 1 -15 -6 0 -11 5 -11 11 0 5 -5 7 -11 4 -6
-4 -8 -14 -5 -22 3 -8 1 -11 -4 -8 -6 3 -10 -1 -10 -9 0 -8 -5 -18 -12 -22 -7
-4 -8 -3 -4 4 4 7 5 12 2 12 -2 0 -12 3 -22 7 -12 5 -15 3 -9 -6 6 -10 2 -11
-16 -6 -13 5 -31 8 -39 9 -8 1 -18 6 -22 11 -5 6 -8 5 -8 -3 0 -10 -3 -10 -15
2 -17 17 -20 36 -5 36 6 0 10 -4 10 -9 0 -17 39 -19 43 -2 4 13 6 11 12 -6 8
-26 13 -27 35 -12 13 9 12 10 -2 5 -21 -6 -24 9 -4 17 8 3 16 1 19 -6 3 -9 9
-9 28 0 17 8 19 12 7 12 -9 1 -20 5 -23 11 -4 7 2 7 18 1 14 -6 27 -8 30 -5z
m310 -9 c-5 -9 -3 -9 8 -1 16 12 59 16 58 6 -3 -21 3 -24 17 -6 8 10 13 13 9
7 -10 -20 4 -36 20 -23 9 8 14 6 18 -9 4 -17 2 -18 -19 -11 -14 6 -26 6 -29 0
-4 -6 -12 -10 -18 -10 -7 0 -6 4 3 10 8 5 11 10 5 11 -5 0 -18 2 -27 4 -11 2
-15 -2 -11 -11 3 -8 -1 -14 -11 -14 -9 0 -16 4 -16 8 0 5 -7 9 -15 9 -8 0 -15
-4 -15 -8 0 -16 -40 -16 -54 0 -24 26 -21 44 4 29 11 -7 18 -20 15 -28 -4 -12
-3 -12 7 1 7 9 21 15 31 13 13 -2 16 3 13 22 -3 14 -1 22 5 19 5 -4 6 -12 2
-18z m728 -5 c-6 -2 -9 -8 -5 -13 3 -5 1 -9 -5 -9 -6 0 -8 -6 -5 -13 3 -8 -2
-14 -11 -14 -18 0 -20 18 -2 36 10 11 10 13 0 7 -8 -5 -13 -1 -13 9 0 9 4 14
8 11 4 -2 14 -1 22 4 10 6 16 5 19 -2 2 -7 -1 -14 -8 -16z m50 -10 c8 -22 12
-24 20 -12 9 13 10 13 6 0 -7 -26 -28 -17 -43 18 -7 18 -9 30 -3 26 6 -3 15
-18 20 -32z m45 23 c-11 -8 -25 -15 -30 -15 -6 1 0 7 14 15 32 19 40 18 16 0z
m703 -18 c12 3 19 9 16 12 -2 4 2 8 8 8 7 0 14 -8 14 -16 1 -12 -7 -16 -33
-15 -19 1 -32 -2 -29 -6 8 -14 75 -7 75 7 0 7 10 13 22 13 l22 0 -23 -17 c-23
-15 -23 -17 -6 -30 11 -7 14 -13 8 -13 -7 0 -15 5 -18 10 -3 6 -28 10 -54 10
-31 0 -53 5 -61 15 -7 8 -19 15 -26 15 -8 0 -11 6 -8 15 5 12 10 13 20 4 8 -6
14 -8 15 -3 1 5 5 -2 9 -16 7 -23 8 -22 10 10 1 31 2 32 10 13 6 -15 15 -20
29 -16z m172 6 c2 1 1 -2 -3 -7 -12 -15 -9 -28 4 -20 7 4 8 3 4 -4 -4 -6 -14
-8 -23 -5 -12 5 -14 3 -8 -8 5 -8 -1 -6 -13 5 -12 10 -19 22 -17 27 3 4 -3 12
-12 18 -10 6 -13 11 -7 11 5 0 15 -5 22 -12 9 -9 13 -7 18 7 7 16 8 16 19 2 7
-9 14 -16 16 -14z m552 13 c2 2 10 -2 17 -11 8 -10 9 -15 1 -15 -6 0 -11 5
-11 11 0 5 -5 7 -11 4 -6 -4 -8 -14 -5 -22 3 -8 1 -11 -4 -8 -6 3 -10 -1 -10
-9 0 -8 -5 -18 -12 -22 -7 -4 -8 -3 -4 4 4 7 5 12 2 12 -2 0 -12 3 -22 7 -12
5 -15 3 -9 -6 6 -10 2 -11 -16 -6 -13 5 -31 8 -39 9 -8 1 -18 6 -22 11 -5 6
-8 5 -8 -3 0 -10 -3 -10 -15 2 -17 17 -20 36 -5 36 6 0 10 -4 10 -9 0 -17 39
-19 43 -2 4 13 6 11 12 -6 8 -26 13 -27 35 -12 13 9 12 10 -2 5 -21 -6 -24 9
-4 17 8 3 16 1 19 -6 3 -9 9 -9 28 0 17 8 19 12 7 12 -9 1 -20 5 -23 11 -4 7
2 7 18 1 14 -6 27 -8 30 -5z m310 -9 c-5 -9 -3 -9 8 -1 16 12 59 16 58 6 -3
-21 3 -24 17 -6 8 10 13 13 9 7 -10 -20 4 -36 20 -23 9 8 14 6 18 -9 4 -17 2
-18 -19 -11 -14 6 -26 6 -29 0 -4 -6 -12 -10 -18 -10 -7 0 -6 4 3 10 8 5 11
10 5 11 -5 0 -18 2 -27 4 -11 2 -15 -2 -11 -11 3 -8 -1 -14 -11 -14 -9 0 -16
4 -16 8 0 5 -7 9 -15 9 -8 0 -15 -4 -15 -8 0 -16 -40 -16 -54 0 -24 26 -21 44
4 29 11 -7 18 -20 15 -28 -4 -12 -3 -12 7 1 7 9 21 15 31 13 13 -2 16 3 13 22
-3 14 -1 22 5 19 5 -4 6 -12 2 -18z m728 -5 c-6 -2 -9 -8 -5 -13 3 -5 1 -9 -5
-9 -6 0 -8 -6 -5 -13 3 -8 -2 -14 -11 -14 -18 0 -20 18 -2 36 10 11 10 13 0 7
-8 -5 -13 -1 -13 9 0 9 4 14 8 11 4 -2 14 -1 22 4 10 6 16 5 19 -2 2 -7 -1
-14 -8 -16z m50 -10 c8 -22 12 -24 20 -12 9 13 10 13 6 0 -7 -26 -28 -17 -43
18 -7 18 -9 30 -3 26 6 -3 15 -18 20 -32z m45 23 c-11 -8 -25 -15 -30 -15 -6
1 0 7 14 15 32 19 40 18 16 0z m703 -18 c12 3 19 9 16 12 -2 4 2 8 8 8 7 0 14
-8 14 -16 1 -12 -7 -16 -33 -15 -19 1 -32 -2 -29 -6 8 -14 75 -7 75 7 0 7 10
13 22 13 l22 0 -23 -17 c-23 -15 -23 -17 -6 -30 11 -7 14 -13 8 -13 -7 0 -15
5 -18 10 -3 6 -28 10 -54 10 -31 0 -53 5 -61 15 -7 8 -19 15 -26 15 -8 0 -11
6 -8 15 5 12 10 13 20 4 8 -6 14 -8 15 -3 1 5 5 -2 9 -16 7 -23 8 -22 10 10 1
31 2 32 10 13 6 -15 15 -20 29 -16z m172 6 c2 1 1 -2 -3 -7 -12 -15 -9 -28 4
-20 7 4 8 3 4 -4 -4 -6 -14 -8 -23 -5 -12 5 -14 3 -8 -8 5 -8 -1 -6 -13 5 -12
10 -19 22 -17 27 3 4 -3 12 -12 18 -10 6 -13 11 -7 11 5 0 15 -5 22 -12 9 -9
13 -7 18 7 7 16 8 16 19 2 7 -9 14 -16 16 -14z m552 13 c2 2 10 -2 17 -11 8
-10 9 -15 1 -15 -6 0 -11 5 -11 11 0 5 -5 7 -11 4 -6 -4 -8 -14 -5 -22 3 -8 1
-11 -4 -8 -6 3 -10 -1 -10 -9 0 -8 -5 -18 -12 -22 -7 -4 -8 -3 -4 4 4 7 5 12
2 12 -2 0 -12 3 -22 7 -12 5 -15 3 -9 -6 6 -10 2 -11 -16 -6 -13 5 -31 8 -39
9 -8 1 -18 6 -22 11 -5 6 -8 5 -8 -3 0 -10 -3 -10 -15 2 -17 17 -20 36 -5 36
6 0 10 -4 10 -9 0 -17 39 -19 43 -2 4 13 6 11 12 -6 8 -26 13 -27 35 -12 13 9
12 10 -2 5 -21 -6 -24 9 -4 17 8 3 16 1 19 -6 3 -9 9 -9 28 0 17 8 19 12 7 12
-9 1 -20 5 -23 11 -4 7 2 7 18 1 14 -6 27 -8 30 -5z m310 -9 c-5 -9 -3 -9 8
-1 16 12 59 16 58 6 -3 -21 3 -24 17 -6 8 10 13 13 9 7 -10 -20 4 -36 20 -23
9 8 14 6 18 -9 4 -17 2 -18 -19 -11 -14 6 -26 6 -29 0 -4 -6 -12 -10 -18 -10
-7 0 -6 4 3 10 8 5 11 10 5 11 -5 0 -18 2 -27 4 -11 2 -15 -2 -11 -11 3 -8 -1
-14 -11 -14 -9 0 -16 4 -16 8 0 5 -7 9 -15 9 -8 0 -15 -4 -15 -8 0 -16 -40
-16 -54 0 -24 26 -21 44 4 29 11 -7 18 -20 15 -28 -4 -12 -3 -12 7 1 7 9 21
15 31 13 13 -2 16 3 13 22 -3 14 -1 22 5 19 5 -4 6 -12 2 -18z m728 -5 c-6 -2
-9 -8 -5 -13 3 -5 1 -9 -5 -9 -6 0 -8 -6 -5 -13 3 -8 -2 -14 -11 -14 -18 0
-20 18 -2 36 10 11 10 13 0 7 -8 -5 -13 -1 -13 9 0 9 4 14 8 11 4 -2 14 -1 22
4 10 6 16 5 19 -2 2 -7 -1 -14 -8 -16z m50 -10 c8 -22 12 -24 20 -12 9 13 10
13 6 0 -7 -26 -28 -17 -43 18 -7 18 -9 30 -3 26 6 -3 15 -18 20 -32z m45 23
c-11 -8 -25 -15 -30 -15 -6 1 0 7 14 15 32 19 40 18 16 0z m703 -18 c12 3 19
9 16 12 -2 4 2 8 8 8 7 0 14 -8 14 -16 1 -12 -7 -16 -33 -15 -19 1 -32 -2 -29
-6 8 -14 75 -7 75 7 0 7 10 13 22 13 l22 0 -23 -17 c-23 -15 -23 -17 -6 -30
11 -7 14 -13 8 -13 -7 0 -15 5 -18 10 -3 6 -28 10 -54 10 -31 0 -53 5 -61 15
-7 8 -19 15 -26 15 -8 0 -11 6 -8 15 5 12 10 13 20 4 8 -6 14 -8 15 -3 1 5 5
-2 9 -16 7 -23 8 -22 10 10 1 31 2 32 10 13 6 -15 15 -20 29 -16z m172 6 c2 1
1 -2 -3 -7 -12 -15 -9 -28 4 -20 7 4 8 3 4 -4 -4 -6 -14 -8 -23 -5 -12 5 -14
3 -8 -8 5 -8 -1 -6 -13 5 -12 10 -19 22 -17 27 3 4 -3 12 -12 18 -10 6 -13 11
-7 11 5 0 15 -5 22 -12 9 -9 13 -7 18 7 7 16 8 16 19 2 7 -9 14 -16 16 -14z
m552 13 c2 2 10 -2 17 -11 8 -10 9 -15 1 -15 -6 0 -11 5 -11 11 0 5 -5 7 -11
4 -6 -4 -8 -14 -5 -22 3 -8 1 -11 -4 -8 -6 3 -10 -1 -10 -9 0 -8 -5 -18 -12
-22 -7 -4 -8 -3 -4 4 4 7 5 12 2 12 -2 0 -12 3 -22 7 -12 5 -15 3 -9 -6 6 -10
2 -11 -16 -6 -13 5 -31 8 -39 9 -8 1 -18 6 -22 11 -5 6 -8 5 -8 -3 0 -10 -3
-10 -15 2 -17 17 -20 36 -5 36 6 0 10 -4 10 -9 0 -17 39 -19 43 -2 4 13 6 11
12 -6 8 -26 13 -27 35 -12 13 9 12 10 -2 5 -21 -6 -24 9 -4 17 8 3 16 1 19 -6
3 -9 9 -9 28 0 17 8 19 12 7 12 -9 1 -20 5 -23 11 -4 7 2 7 18 1 14 -6 27 -8
30 -5z m310 -9 c-5 -9 -3 -9 8 -1 16 12 59 16 58 6 -3 -21 3 -24 17 -6 8 10
13 13 9 7 -10 -20 4 -36 20 -23 9 8 14 6 18 -9 4 -17 2 -18 -19 -11 -14 6 -26
6 -29 0 -4 -6 -12 -10 -18 -10 -7 0 -6 4 3 10 8 5 11 10 5 11 -5 0 -18 2 -27
4 -11 2 -15 -2 -11 -11 3 -8 -1 -14 -11 -14 -9 0 -16 4 -16 8 0 5 -7 9 -15 9
-8 0 -15 -4 -15 -8 0 -16 -40 -16 -54 0 -24 26 -21 44 4 29 11 -7 18 -20 15
-28 -4 -12 -3 -12 7 1 7 9 21 15 31 13 13 -2 16 3 13 22 -3 14 -1 22 5 19 5
-4 6 -12 2 -18z m728 -5 c-6 -2 -9 -8 -5 -13 3 -5 1 -9 -5 -9 -6 0 -8 -6 -5
-13 3 -8 -2 -14 -11 -14 -18 0 -20 18 -2 36 10 11 10 13 0 7 -8 -5 -13 -1 -13
9 0 9 4 14 8 11 4 -2 14 -1 22 4 10 6 16 5 19 -2 2 -7 -1 -14 -8 -16z m50 -10
c8 -22 12 -24 20 -12 9 13 10 13 6 0 -7 -26 -28 -17 -43 18 -7 18 -9 30 -3 26
6 -3 15 -18 20 -32z m45 23 c-11 -8 -25 -15 -30 -15 -6 1 0 7 14 15 32 19 40
18 16 0z m703 -18 c12 3 19 9 16 12 -2 4 2 8 8 8 7 0 14 -8 14 -16 1 -12 -7
-16 -33 -15 -19 1 -32 -2 -29 -6 8 -14 75 -7 75 7 0 7 10 13 22 13 l22 0 -23
-17 c-23 -15 -23 -17 -6 -30 11 -7 14 -13 8 -13 -7 0 -15 5 -18 10 -3 6 -28
10 -54 10 -31 0 -53 5 -61 15 -7 8 -19 15 -26 15 -8 0 -11 6 -8 15 5 12 10 13
20 4 8 -6 14 -8 15 -3 1 5 5 -2 9 -16 7 -23 8 -22 10 10 1 31 2 32 10 13 6
-15 15 -20 29 -16z m172 6 c2 1 1 -2 -3 -7 -12 -15 -9 -28 4 -20 7 4 8 3 4 -4
-4 -6 -14 -8 -23 -5 -12 5 -14 3 -8 -8 5 -8 -1 -6 -13 5 -12 10 -19 22 -17 27
3 4 -3 12 -12 18 -10 6 -13 11 -7 11 5 0 15 -5 22 -12 9 -9 13 -7 18 7 7 16 8
16 19 2 7 -9 14 -16 16 -14z m552 13 c2 2 10 -2 17 -11 8 -10 9 -15 1 -15 -6
0 -11 5 -11 11 0 5 -5 7 -11 4 -6 -4 -8 -14 -5 -22 3 -8 1 -11 -4 -8 -6 3 -10
-1 -10 -9 0 -8 -5 -18 -12 -22 -7 -4 -8 -3 -4 4 4 7 5 12 2 12 -2 0 -12 3 -22
7 -12 5 -15 3 -9 -6 6 -10 2 -11 -16 -6 -13 5 -31 8 -39 9 -8 1 -18 6 -22 11
-5 6 -8 5 -8 -3 0 -10 -3 -10 -15 2 -17 17 -20 36 -5 36 6 0 10 -4 10 -9 0
-17 39 -19 43 -2 4 13 6 11 12 -6 8 -26 13 -27 35 -12 13 9 12 10 -2 5 -21 -6
-24 9 -4 17 8 3 16 1 19 -6 3 -9 9 -9 28 0 17 8 19 12 7 12 -9 1 -20 5 -23 11
-4 7 2 7 18 1 14 -6 27 -8 30 -5z m310 -9 c-5 -9 -3 -9 8 -1 16 12 59 16 58 6
-3 -21 3 -24 17 -6 8 10 13 13 9 7 -10 -20 4 -36 20 -23 9 8 14 6 18 -9 4 -17
2 -18 -19 -11 -14 6 -26 6 -29 0 -4 -6 -12 -10 -18 -10 -7 0 -6 4 3 10 8 5 11
10 5 11 -5 0 -18 2 -27 4 -11 2 -15 -2 -11 -11 3 -8 -1 -14 -11 -14 -9 0 -16
4 -16 8 0 5 -7 9 -15 9 -8 0 -15 -4 -15 -8 0 -16 -40 -16 -54 0 -24 26 -21 44
4 29 11 -7 18 -20 15 -28 -4 -12 -3 -12 7 1 7 9 21 15 31 13 13 -2 16 3 13 22
-3 14 -1 22 5 19 5 -4 6 -12 2 -18z m728 -5 c-6 -2 -9 -8 -5 -13 3 -5 1 -9 -5
-9 -6 0 -8 -6 -5 -13 3 -8 -2 -14 -11 -14 -18 0 -20 18 -2 36 10 11 10 13 0 7
-8 -5 -13 -1 -13 9 0 9 4 14 8 11 4 -2 14 -1 22 4 10 6 16 5 19 -2 2 -7 -1
-14 -8 -16z m50 -10 c8 -22 12 -24 20 -12 9 13 10 13 6 0 -7 -26 -28 -17 -43
18 -7 18 -9 30 -3 26 6 -3 15 -18 20 -32z m45 23 c-11 -8 -25 -15 -30 -15 -6
1 0 7 14 15 32 19 40 18 16 0z m703 -18 c12 3 19 9 16 12 -2 4 2 8 8 8 7 0 14
-8 14 -16 1 -12 -7 -16 -33 -15 -19 1 -32 -2 -29 -6 8 -14 75 -7 75 7 0 7 10
13 22 13 l22 0 -23 -17 c-23 -15 -23 -17 -6 -30 11 -7 14 -13 8 -13 -7 0 -15
5 -18 10 -3 6 -28 10 -54 10 -31 0 -53 5 -61 15 -7 8 -19 15 -26 15 -8 0 -11
6 -8 15 5 12 10 13 20 4 8 -6 14 -8 15 -3 1 5 5 -2 9 -16 7 -23 8 -22 10 10 1
31 2 32 10 13 6 -15 15 -20 29 -16z m172 6 c2 1 1 -2 -3 -7 -12 -15 -9 -28 4
-20 7 4 8 3 4 -4 -4 -6 -14 -8 -23 -5 -12 5 -14 3 -8 -8 5 -8 -1 -6 -13 5 -12
10 -19 22 -17 27 3 4 -3 12 -12 18 -10 6 -13 11 -7 11 5 0 15 -5 22 -12 9 -9
13 -7 18 7 7 16 8 16 19 2 7 -9 14 -16 16 -14z m552 13 c2 2 10 -2 17 -11 8
-10 9 -15 1 -15 -6 0 -11 5 -11 11 0 5 -5 7 -11 4 -6 -4 -8 -14 -5 -22 3 -8 1
-11 -4 -8 -6 3 -10 -1 -10 -9 0 -8 -5 -18 -12 -22 -7 -4 -8 -3 -4 4 4 7 5 12
2 12 -2 0 -12 3 -22 7 -12 5 -15 3 -9 -6 6 -10 2 -11 -16 -6 -13 5 -31 8 -39
9 -8 1 -18 6 -22 11 -5 6 -8 5 -8 -3 0 -10 -3 -10 -15 2 -17 17 -20 36 -5 36
6 0 10 -4 10 -9 0 -17 39 -19 43 -2 4 13 6 11 12 -6 8 -26 13 -27 35 -12 13 9
12 10 -2 5 -21 -6 -24 9 -4 17 8 3 16 1 19 -6 3 -9 9 -9 28 0 17 8 19 12 7 12
-9 1 -20 5 -23 11 -4 7 2 7 18 1 14 -6 27 -8 30 -5z m310 -9 c-5 -9 -3 -9 8
-1 16 12 59 16 58 6 -3 -21 3 -24 17 -6 8 10 13 13 9 7 -10 -20 4 -36 20 -23
9 8 14 6 18 -9 4 -17 2 -18 -19 -11 -14 6 -26 6 -29 0 -4 -6 -12 -10 -18 -10
-7 0 -6 4 3 10 8 5 11 10 5 11 -5 0 -18 2 -27 4 -11 2 -15 -2 -11 -11 3 -8 -1
-14 -11 -14 -9 0 -16 4 -16 8 0 5 -7 9 -15 9 -8 0 -15 -4 -15 -8 0 -16 -40
-16 -54 0 -24 26 -21 44 4 29 11 -7 18 -20 15 -28 -4 -12 -3 -12 7 1 7 9 21
15 31 13 13 -2 16 3 13 22 -3 14 -1 22 5 19 5 -4 6 -12 2 -18z m728 -5 c-6 -2
-9 -8 -5 -13 3 -5 1 -9 -5 -9 -6 0 -8 -6 -5 -13 3 -8 -2 -14 -11 -14 -18 0
-20 18 -2 36 10 11 10 13 0 7 -8 -5 -13 -1 -13 9 0 9 4 14 8 11 4 -2 14 -1 22
4 10 6 16 5 19 -2 2 -7 -1 -14 -8 -16z m50 -10 c8 -22 12 -24 20 -12 9 13 10
13 6 0 -7 -26 -28 -17 -43 18 -7 18 -9 30 -3 26 6 -3 15 -18 20 -32z m45 23
c-11 -8 -25 -15 -30 -15 -6 1 0 7 14 15 32 19 40 18 16 0z m703 -18 c12 3 19
9 16 12 -2 4 2 8 8 8 7 0 14 -8 14 -16 1 -12 -7 -16 -33 -15 -19 1 -32 -2 -29
-6 8 -14 75 -7 75 7 0 7 10 13 22 13 l22 0 -23 -17 c-23 -15 -23 -17 -6 -30
11 -7 14 -13 8 -13 -7 0 -15 5 -18 10 -3 6 -28 10 -54 10 -31 0 -53 5 -61 15
-7 8 -19 15 -26 15 -8 0 -11 6 -8 15 5 12 10 13 20 4 8 -6 14 -8 15 -3 1 5 5
-2 9 -16 7 -23 8 -22 10 10 1 31 2 32 10 13 6 -15 15 -20 29 -16z m172 6 c2 1
1 -2 -3 -7 -12 -15 -9 -28 4 -20 7 4 8 3 4 -4 -4 -6 -14 -8 -23 -5 -12 5 -14
3 -8 -8 5 -8 -1 -6 -13 5 -12 10 -19 22 -17 27 3 4 -3 12 -12 18 -10 6 -13 11
-7 11 5 0 15 -5 22 -12 9 -9 13 -7 18 7 7 16 8 16 19 2 7 -9 14 -16 16 -14z
m552 13 c2 2 10 -2 17 -11 8 -10 9 -15 1 -15 -6 0 -11 5 -11 11 0 5 -5 7 -11
4 -6 -4 -8 -14 -5 -22 3 -8 1 -11 -4 -8 -6 3 -10 -1 -10 -9 0 -8 -5 -18 -12
-22 -7 -4 -8 -3 -4 4 4 7 5 12 2 12 -2 0 -12 3 -22 7 -12 5 -15 3 -9 -6 6 -10
2 -11 -16 -6 -13 5 -31 8 -39 9 -8 1 -18 6 -22 11 -5 6 -8 5 -8 -3 0 -10 -3
-10 -15 2 -17 17 -20 36 -5 36 6 0 10 -4 10 -9 0 -17 39 -19 43 -2 4 13 6 11
12 -6 8 -26 13 -27 35 -12 13 9 12 10 -2 5 -21 -6 -24 9 -4 17 8 3 16 1 19 -6
3 -9 9 -9 28 0 17 8 19 12 7 12 -9 1 -20 5 -23 11 -4 7 2 7 18 1 14 -6 27 -8
30 -5z m310 -9 c-5 -9 -3 -9 8 -1 16 12 59 16 58 6 -3 -21 3 -24 17 -6 8 10
13 13 9 7 -10 -20 4 -36 20 -23 9 8 14 6 18 -9 4 -17 2 -18 -19 -11 -14 6 -26
6 -29 0 -4 -6 -12 -10 -18 -10 -7 0 -6 4 3 10 8 5 11 10 5 11 -5 0 -18 2 -27
4 -11 2 -15 -2 -11 -11 3 -8 -1 -14 -11 -14 -9 0 -16 4 -16 8 0 5 -7 9 -15 9
-8 0 -15 -4 -15 -8 0 -16 -40 -16 -54 0 -24 26 -21 44 4 29 11 -7 18 -20 15
-28 -4 -12 -3 -12 7 1 7 9 21 15 31 13 13 -2 16 3 13 22 -3 14 -1 22 5 19 5
-4 6 -12 2 -18z m728 -5 c-6 -2 -9 -8 -5 -13 3 -5 1 -9 -5 -9 -6 0 -8 -6 -5
-13 3 -8 -2 -14 -11 -14 -18 0 -20 18 -2 36 10 11 10 13 0 7 -8 -5 -13 -1 -13
9 0 9 4 14 8 11 4 -2 14 -1 22 4 10 6 16 5 19 -2 2 -7 -1 -14 -8 -16z m50 -10
c8 -22 12 -24 20 -12 9 13 10 13 6 0 -7 -26 -28 -17 -43 18 -7 18 -9 30 -3 26
6 -3 15 -18 20 -32z m45 23 c-11 -8 -25 -15 -30 -15 -6 1 0 7 14 15 32 19 40
18 16 0z m703 -18 c12 3 19 9 16 12 -2 4 2 8 8 8 7 0 14 -8 14 -16 1 -12 -7
-16 -33 -15 -19 1 -32 -2 -29 -6 8 -14 75 -7 75 7 0 7 10 13 22 13 l22 0 -23
-17 c-23 -15 -23 -17 -6 -30 11 -7 14 -13 8 -13 -7 0 -15 5 -18 10 -3 6 -28
10 -54 10 -31 0 -53 5 -61 15 -7 8 -19 15 -26 15 -8 0 -11 6 -8 15 5 12 10 13
20 4 8 -6 14 -8 15 -3 1 5 5 -2 9 -16 7 -23 8 -22 10 10 1 31 2 32 10 13 6
-15 15 -20 29 -16z m172 6 c2 1 1 -2 -3 -7 -12 -15 -9 -28 4 -20 7 4 8 3 4 -4
-4 -6 -14 -8 -23 -5 -12 5 -14 3 -8 -8 5 -8 -1 -6 -13 5 -12 10 -19 22 -17 27
3 4 -3 12 -12 18 -10 6 -13 11 -7 11 5 0 15 -5 22 -12 9 -9 13 -7 18 7 7 16 8
16 19 2 7 -9 14 -16 16 -14z m552 13 c2 2 10 -2 17 -11 8 -10 9 -15 1 -15 -6
0 -11 5 -11 11 0 5 -5 7 -11 4 -6 -4 -8 -14 -5 -22 3 -8 1 -11 -4 -8 -6 3 -10
-1 -10 -9 0 -8 -5 -18 -12 -22 -7 -4 -8 -3 -4 4 4 7 5 12 2 12 -2 0 -12 3 -22
7 -12 5 -15 3 -9 -6 6 -10 2 -11 -16 -6 -13 5 -31 8 -39 9 -8 1 -18 6 -22 11
-5 6 -8 5 -8 -3 0 -10 -3 -10 -15 2 -17 17 -20 36 -5 36 6 0 10 -4 10 -9 0
-17 39 -19 43 -2 4 13 6 11 12 -6 8 -26 13 -27 35 -12 13 9 12 10 -2 5 -21 -6
-24 9 -4 17 8 3 16 1 19 -6 3 -9 9 -9 28 0 17 8 19 12 7 12 -9 1 -20 5 -23 11
-4 7 2 7 18 1 14 -6 27 -8 30 -5z m310 -9 c-5 -9 -3 -9 8 -1 16 12 59 16 58 6
-3 -21 3 -24 17 -6 8 10 13 13 9 7 -10 -20 4 -36 20 -23 9 8 14 6 18 -9 4 -17
2 -18 -19 -11 -14 6 -26 6 -29 0 -4 -6 -12 -10 -18 -10 -7 0 -6 4 3 10 8 5 11
10 5 11 -5 0 -18 2 -27 4 -11 2 -15 -2 -11 -11 3 -8 -1 -14 -11 -14 -9 0 -16
4 -16 8 0 5 -7 9 -15 9 -8 0 -15 -4 -15 -8 0 -16 -40 -16 -54 0 -24 26 -21 44
4 29 11 -7 18 -20 15 -28 -4 -12 -3 -12 7 1 7 9 21 15 31 13 13 -2 16 3 13 22
-3 14 -1 22 5 19 5 -4 6 -12 2 -18z m728 -5 c-6 -2 -9 -8 -5 -13 3 -5 1 -9 -5
-9 -6 0 -8 -6 -5 -13 3 -8 -2 -14 -11 -14 -18 0 -20 18 -2 36 10 11 10 13 0 7
-8 -5 -13 -1 -13 9 0 9 4 14 8 11 4 -2 14 -1 22 4 10 6 16 5 19 -2 2 -7 -1
-14 -8 -16z m50 -10 c8 -22 12 -24 20 -12 9 13 10 13 6 0 -7 -26 -28 -17 -43
18 -7 18 -9 30 -3 26 6 -3 15 -18 20 -32z m45 23 c-11 -8 -25 -15 -30 -15 -6
1 0 7 14 15 32 19 40 18 16 0z m703 -18 c12 3 19 9 16 12 -2 4 2 8 8 8 7 0 14
-8 14 -16 1 -12 -7 -16 -33 -15 -19 1 -32 -2 -29 -6 8 -14 75 -7 75 7 0 7 10
13 22 13 l22 0 -23 -17 c-23 -15 -23 -17 -6 -30 11 -7 14 -13 8 -13 -7 0 -15
5 -18 10 -3 6 -28 10 -54 10 -31 0 -53 5 -61 15 -7 8 -19 15 -26 15 -8 0 -11
6 -8 15 5 12 10 13 20 4 8 -6 14 -8 15 -3 1 5 5 -2 9 -16 7 -23 8 -22 10 10 1
31 2 32 10 13 6 -15 15 -20 29 -16z m172 6 c2 1 1 -2 -3 -7 -12 -15 -9 -28 4
-20 7 4 8 3 4 -4 -4 -6 -14 -8 -23 -5 -12 5 -14 3 -8 -8 5 -8 -1 -6 -13 5 -12
10 -19 22 -17 27 3 4 -3 12 -12 18 -10 6 -13 11 -7 11 5 0 15 -5 22 -12 9 -9
13 -7 18 7 7 16 8 16 19 2 7 -9 14 -16 16 -14z m552 13 c2 2 10 -2 17 -11 8
-10 9 -15 1 -15 -6 0 -11 5 -11 11 0 5 -5 7 -11 4 -6 -4 -8 -14 -5 -22 3 -8 1
-11 -4 -8 -6 3 -10 -1 -10 -9 0 -8 -5 -18 -12 -22 -7 -4 -8 -3 -4 4 4 7 5 12
2 12 -2 0 -12 3 -22 7 -12 5 -15 3 -9 -6 6 -10 2 -11 -16 -6 -13 5 -31 8 -39
9 -8 1 -18 6 -22 11 -5 6 -8 5 -8 -3 0 -10 -3 -10 -15 2 -17 17 -20 36 -5 36
6 0 10 -4 10 -9 0 -17 39 -19 43 -2 4 13 6 11 12 -6 8 -26 13 -27 35 -12 13 9
12 10 -2 5 -21 -6 -24 9 -4 17 8 3 16 1 19 -6 3 -9 9 -9 28 0 17 8 19 12 7 12
-9 1 -20 5 -23 11 -4 7 2 7 18 1 14 -6 27 -8 30 -5z m310 -9 c-5 -9 -3 -9 8
-1 16 12 59 16 58 6 -3 -21 3 -24 17 -6 8 10 13 13 9 7 -10 -20 4 -36 20 -23
9 8 14 6 18 -9 4 -17 2 -18 -19 -11 -14 6 -26 6 -29 0 -4 -6 -12 -10 -18 -10
-7 0 -6 4 3 10 8 5 11 10 5 11 -5 0 -18 2 -27 4 -11 2 -15 -2 -11 -11 3 -8 -1
-14 -11 -14 -9 0 -16 4 -16 8 0 5 -7 9 -15 9 -8 0 -15 -4 -15 -8 0 -16 -40
-16 -54 0 -24 26 -21 44 4 29 11 -7 18 -20 15 -28 -4 -12 -3 -12 7 1 7 9 21
15 31 13 13 -2 16 3 13 22 -3 14 -1 22 5 19 5 -4 6 -12 2 -18z m-24189 -3 c5
-13 1 -15 -21 -9 -26 6 -27 5 -9 -8 10 -7 16 -20 13 -28 -4 -9 -6 -7 -6 6 -1
17 -3 17 -11 5 -6 -10 -10 -11 -10 -3 0 9 -7 10 -25 3 -24 -9 -25 -8 -14 11 6
11 13 18 16 15 3 -3 15 1 27 9 26 19 32 19 40 -1z m366 3 c0 -5 7 -7 15 -4 8
4 17 2 20 -4 4 -5 3 -9 -2 -8 -12 3 -63 -23 -59 -30 2 -3 -7 -7 -21 -8 -15 0
-22 2 -16 5 6 4 9 15 7 25 -1 9 2 17 7 17 5 0 9 -6 10 -12 0 -10 2 -10 6 0 2
6 10 9 16 5 8 -5 8 -2 0 8 -10 13 -10 16 2 16 8 0 15 -5 15 -10z m105 -3 c15
10 26 12 30 6 4 -6 -4 -14 -17 -19 -21 -8 -21 -10 -5 -16 19 -8 70 13 62 24
-2 4 8 6 23 6 15 -1 33 3 40 8 7 6 12 6 12 -1 0 -6 -4 -14 -10 -17 -20 -12 -9
-25 16 -21 15 3 23 2 19 -2 -3 -4 -16 -7 -28 -7 -12 -1 -28 -4 -34 -8 -8 -5
-13 -4 -13 2 0 6 5 11 10 11 6 0 10 7 10 16 0 13 -2 13 -17 -2 -10 -10 -18
-21 -18 -25 0 -4 -4 -11 -9 -16 -5 -4 -7 -3 -3 3 4 7 -7 11 -30 12 -20 1 -40
7 -43 13 -6 8 -13 8 -30 -1 -26 -14 -33 -9 -24 14 5 14 9 15 15 4 6 -9 9 -6
10 12 1 18 3 20 6 7 4 -17 7 -17 28 -3z m435 3 c0 -4 4 -6 9 -3 5 4 4 -5 -2
-19 -8 -17 -13 -20 -15 -10 -2 8 -7 15 -12 15 -4 0 -10 6 -13 13 -3 8 3 13 14
13 11 0 19 -4 19 -9z m79 -8 c-23 -17 -8 -22 19 -6 7 5 12 4 12 -2 0 -6 -5
-11 -11 -11 -5 0 -8 -4 -5 -9 3 -5 -1 -14 -9 -21 -10 -9 -15 -9 -15 -1 0 6 5
11 11 11 5 0 7 5 4 10 -5 8 -11 8 -20 0 -9 -8 -15 -8 -20 0 -3 6 -10 8 -15 5
-5 -3 -11 -1 -15 5 -3 5 -3 10 2 11 28 2 48 9 51 17 1 5 10 9 18 9 12 0 10 -5
-7 -18z m65 -19 c4 -25 3 -31 -4 -20 -6 10 -10 11 -10 3 0 -7 -4 -13 -10 -13
-5 0 -10 7 -10 15 0 8 5 15 11 15 5 0 7 5 4 10 -3 6 -3 15 0 21 9 14 11 11 19
-31z m469 12 c-5 -21 -6 -21 -20 -5 -8 10 -12 12 -8 6 3 -7 1 -13 -4 -13 -6 0
-11 7 -11 16 0 11 6 14 20 9 13 -4 20 -2 20 6 0 7 2 10 5 8 2 -3 2 -15 -2 -27z
m287 11 c10 9 12 9 8 -3 -3 -9 -16 -15 -31 -14 -15 1 -27 -3 -27 -7 0 -5 5 -9
10 -9 6 0 10 -5 10 -11 0 -8 -4 -9 -13 0 -8 6 -16 9 -19 6 -2 -3 -5 2 -5 10 0
8 9 17 19 21 10 3 16 11 12 17 -3 7 1 4 9 -5 11 -14 16 -15 27 -5z m261 0 c13
-16 12 -17 -3 -4 -17 13 -22 21 -14 21 2 0 10 -8 17 -17z m213 -16 c-6 -19 -5
-20 9 -9 9 8 21 11 27 7 5 -3 10 -2 10 3 0 6 7 13 16 16 15 6 15 4 3 -11 -13
-15 -12 -16 8 -11 16 4 20 2 16 -8 -3 -9 -15 -12 -30 -10 -13 3 -36 1 -49 -4
-18 -7 -23 -7 -18 1 4 8 -1 9 -16 4 l-22 -7 21 21 c12 12 19 27 15 33 -4 7 -3
8 5 4 7 -5 9 -16 5 -29z m173 19 c-4 7 3 12 18 12 19 0 23 -4 15 -13 -18 -21
2 -25 28 -5 30 24 38 25 46 4 5 -13 1 -15 -21 -9 -26 6 -27 5 -9 -8 10 -7 16
-20 13 -28 -4 -9 -6 -7 -6 6 -1 17 -3 17 -11 5 -7 -11 -10 -11 -10 -2 0 7 -4
10 -10 7 -22 -14 -71 -13 -77 1 -3 7 -9 11 -14 8 -5 -3 -7 -9 -5 -13 3 -3 -3
-7 -12 -7 -11 0 -17 8 -17 22 0 19 4 22 29 17 23 -5 27 -3 21 8 -7 11 -5 11
10 -1 10 -8 16 -10 12 -4z m473 1 c0 -5 7 -7 15 -4 8 4 17 2 20 -4 4 -5 3 -9
-2 -8 -12 3 -63 -23 -59 -30 2 -3 -7 -7 -21 -8 -15 0 -22 2 -16 5 6 4 9 15 7
25 -1 9 2 17 7 17 5 0 9 -6 10 -12 0 -10 2 -10 6 0 2 6 10 9 16 5 8 -5 8 -2 0
8 -10 13 -10 16 2 16 8 0 15 -5 15 -10z m105 -3 c15 10 26 12 30 6 4 -6 -4
-14 -17 -19 -21 -8 -21 -10 -5 -16 19 -8 70 13 62 24 -2 4 8 6 23 6 15 -1 33
3 40 8 7 6 12 6 12 -1 0 -6 -4 -14 -10 -17 -20 -12 -9 -25 16 -21 15 3 23 2
19 -2 -3 -4 -16 -7 -28 -7 -12 -1 -28 -4 -34 -8 -8 -5 -13 -4 -13 2 0 6 5 11
10 11 6 0 10 7 10 16 0 13 -2 13 -17 -2 -10 -10 -18 -21 -18 -25 0 -4 -4 -11
-9 -16 -5 -4 -7 -3 -3 3 4 7 -7 11 -30 12 -20 1 -40 7 -43 13 -6 8 -13 8 -30
-1 -26 -14 -33 -9 -24 14 5 14 9 15 15 4 6 -9 9 -6 10 12 1 18 3 20 6 7 4 -17
7 -17 28 -3z m435 3 c0 -4 4 -6 9 -3 5 4 4 -5 -2 -19 -8 -17 -13 -20 -15 -10
-2 8 -7 15 -12 15 -4 0 -10 6 -13 13 -3 8 3 13 14 13 11 0 19 -4 19 -9z m79
-8 c-23 -17 -8 -22 19 -6 7 5 12 4 12 -2 0 -6 -5 -11 -11 -11 -5 0 -8 -4 -5
-9 3 -5 -1 -14 -9 -21 -10 -9 -15 -9 -15 -1 0 6 5 11 11 11 5 0 7 5 4 10 -5 8
-11 8 -20 0 -9 -8 -15 -8 -20 0 -3 6 -10 8 -15 5 -5 -3 -11 -1 -15 5 -3 5 -3
10 2 11 28 2 48 9 51 17 1 5 10 9 18 9 12 0 10 -5 -7 -18z m65 -19 c4 -25 3
-31 -4 -20 -6 10 -10 11 -10 3 0 -7 -4 -13 -10 -13 -5 0 -10 7 -10 15 0 8 5
15 11 15 5 0 7 5 4 10 -3 6 -3 15 0 21 9 14 11 11 19 -31z m469 12 c-5 -21 -6
-21 -20 -5 -8 10 -12 12 -8 6 3 -7 1 -13 -4 -13 -6 0 -11 7 -11 16 0 11 6 14
20 9 13 -4 20 -2 20 6 0 7 2 10 5 8 2 -3 2 -15 -2 -27z m287 11 c10 9 12 9 8
-3 -3 -9 -16 -15 -31 -14 -15 1 -27 -3 -27 -7 0 -5 5 -9 10 -9 6 0 10 -5 10
-11 0 -8 -4 -9 -13 0 -8 6 -16 9 -19 6 -2 -3 -5 2 -5 10 0 8 9 17 19 21 10 3
16 11 12 17 -3 7 1 4 9 -5 11 -14 16 -15 27 -5z m261 0 c13 -16 12 -17 -3 -4
-10 7 -18 15 -18 17 0 8 8 3 21 -13z m213 -16 c-6 -19 -5 -20 9 -9 9 8 21 11
27 7 5 -3 10 -2 10 3 0 6 7 13 16 16 15 6 15 4 3 -11 -13 -15 -12 -16 8 -11
16 4 20 2 16 -8 -3 -9 -15 -12 -30 -10 -13 3 -36 1 -49 -4 -18 -7 -23 -7 -18
1 4 8 -1 9 -16 4 l-22 -7 21 21 c12 12 19 27 15 33 -4 7 -3 8 5 4 7 -5 9 -16
5 -29z m173 19 c-4 7 3 12 18 12 19 0 23 -4 15 -13 -18 -21 2 -25 28 -5 30 24
38 25 46 4 5 -13 1 -15 -21 -9 -26 6 -27 5 -9 -8 10 -7 16 -20 13 -28 -4 -9
-6 -7 -6 6 -1 17 -3 17 -11 5 -7 -11 -10 -11 -10 -2 0 7 -4 10 -10 7 -22 -14
-71 -13 -77 1 -3 7 -9 11 -14 8 -5 -3 -7 -9 -5 -13 3 -3 -3 -7 -12 -7 -11 0
-17 8 -17 22 0 19 4 22 29 17 23 -5 27 -3 21 8 -7 11 -5 11 10 -1 10 -8 16
-10 12 -4z m473 1 c0 -5 7 -7 15 -4 8 4 17 2 20 -4 4 -5 3 -9 -2 -8 -12 3 -63
-23 -59 -30 2 -3 -7 -7 -21 -8 -15 0 -22 2 -16 5 6 4 9 15 7 25 -1 9 2 17 7
17 5 0 9 -6 10 -12 0 -10 2 -10 6 0 2 6 10 9 16 5 8 -5 8 -2 0 8 -10 13 -10
16 2 16 8 0 15 -5 15 -10z m105 -3 c15 10 26 12 30 6 4 -6 -4 -14 -17 -19 -21
-8 -21 -10 -5 -16 19 -8 70 13 62 24 -2 4 8 6 23 6 15 -1 33 3 40 8 7 6 12 6
12 -1 0 -6 -4 -14 -10 -17 -20 -12 -9 -25 16 -21 15 3 23 2 19 -2 -3 -4 -16
-7 -28 -7 -12 -1 -28 -4 -34 -8 -8 -5 -13 -4 -13 2 0 6 5 11 10 11 6 0 10 7
10 16 0 13 -2 13 -17 -2 -10 -10 -18 -21 -18 -25 0 -4 -4 -11 -9 -16 -5 -4 -7
-3 -3 3 4 7 -7 11 -30 12 -20 1 -40 7 -43 13 -6 8 -13 8 -30 -1 -26 -14 -33
-9 -24 14 5 14 9 15 15 4 6 -9 9 -6 10 12 1 18 3 20 6 7 4 -17 7 -17 28 -3z
m435 3 c0 -4 4 -6 9 -3 5 4 4 -5 -2 -19 -8 -17 -13 -20 -15 -10 -2 8 -7 15
-12 15 -4 0 -10 6 -13 13 -3 8 3 13 14 13 11 0 19 -4 19 -9z m79 -8 c-23 -17
-8 -22 19 -6 7 5 12 4 12 -2 0 -6 -5 -11 -11 -11 -5 0 -8 -4 -5 -9 3 -5 -1
-14 -9 -21 -10 -9 -15 -9 -15 -1 0 6 5 11 11 11 5 0 7 5 4 10 -5 8 -11 8 -20
0 -9 -8 -15 -8 -20 0 -3 6 -10 8 -15 5 -5 -3 -11 -1 -15 5 -3 5 -3 10 2 11 28
2 48 9 51 17 1 5 10 9 18 9 12 0 10 -5 -7 -18z m65 -19 c4 -25 3 -31 -4 -20
-6 10 -10 11 -10 3 0 -7 -4 -13 -10 -13 -5 0 -10 7 -10 15 0 8 5 15 11 15 5 0
7 5 4 10 -3 6 -3 15 0 21 9 14 11 11 19 -31z m469 12 c-5 -21 -6 -21 -20 -5
-8 10 -12 12 -8 6 3 -7 1 -13 -4 -13 -6 0 -11 7 -11 16 0 11 6 14 20 9 13 -4
20 -2 20 6 0 7 2 10 5 8 2 -3 2 -15 -2 -27z m287 11 c10 9 12 9 8 -3 -3 -9
-16 -15 -31 -14 -15 1 -27 -3 -27 -7 0 -5 5 -9 10 -9 6 0 10 -5 10 -11 0 -8
-4 -9 -13 0 -8 6 -16 9 -19 6 -2 -3 -5 2 -5 10 0 8 9 17 19 21 10 3 16 11 12
17 -3 7 1 4 9 -5 11 -14 16 -15 27 -5z m261 0 c13 -16 12 -17 -3 -4 -10 7 -18
15 -18 17 0 8 8 3 21 -13z m213 -16 c-6 -19 -5 -20 9 -9 9 8 21 11 27 7 5 -3
10 -2 10 3 0 6 7 13 16 16 15 6 15 4 3 -11 -13 -15 -12 -16 8 -11 16 4 20 2
16 -8 -3 -9 -15 -12 -30 -10 -13 3 -36 1 -49 -4 -18 -7 -23 -7 -18 1 4 8 -1 9
-16 4 l-22 -7 21 21 c12 12 19 27 15 33 -4 7 -3 8 5 4 7 -5 9 -16 5 -29z m173
19 c-4 7 3 12 18 12 19 0 23 -4 15 -13 -18 -21 2 -25 28 -5 30 24 38 25 46 4
5 -13 1 -15 -21 -9 -26 6 -27 5 -9 -8 10 -7 16 -20 13 -28 -4 -9 -6 -7 -6 6
-1 17 -3 17 -11 5 -7 -11 -10 -11 -10 -2 0 7 -4 10 -10 7 -22 -14 -71 -13 -77
1 -3 7 -9 11 -14 8 -5 -3 -7 -9 -5 -13 3 -3 -3 -7 -12 -7 -11 0 -17 8 -17 22
0 19 4 22 29 17 23 -5 27 -3 21 8 -7 11 -5 11 10 -1 10 -8 16 -10 12 -4z m473
1 c0 -5 7 -7 15 -4 8 4 17 2 20 -4 4 -5 3 -9 -2 -8 -12 3 -63 -23 -59 -30 2
-3 -7 -7 -21 -8 -15 0 -22 2 -16 5 6 4 9 15 7 25 -1 9 2 17 7 17 5 0 9 -6 10
-12 0 -10 2 -10 6 0 2 6 10 9 16 5 8 -5 8 -2 0 8 -10 13 -10 16 2 16 8 0 15
-5 15 -10z m105 -3 c15 10 26 12 30 6 4 -6 -4 -14 -17 -19 -21 -8 -21 -10 -5
-16 19 -8 70 13 62 24 -2 4 8 6 23 6 15 -1 33 3 40 8 7 6 12 6 12 -1 0 -6 -4
-14 -10 -17 -20 -12 -9 -25 16 -21 15 3 23 2 19 -2 -3 -4 -16 -7 -28 -7 -12
-1 -28 -4 -34 -8 -8 -5 -13 -4 -13 2 0 6 5 11 10 11 6 0 10 7 10 16 0 13 -2
13 -17 -2 -10 -10 -18 -21 -18 -25 0 -4 -4 -11 -9 -16 -5 -4 -7 -3 -3 3 4 7
-7 11 -30 12 -20 1 -40 7 -43 13 -6 8 -13 8 -30 -1 -26 -14 -33 -9 -24 14 5
14 9 15 15 4 6 -9 9 -6 10 12 1 18 3 20 6 7 4 -17 7 -17 28 -3z m435 3 c0 -4
4 -6 9 -3 5 4 4 -5 -2 -19 -8 -17 -13 -20 -15 -10 -2 8 -7 15 -12 15 -4 0 -10
6 -13 13 -3 8 3 13 14 13 11 0 19 -4 19 -9z m79 -8 c-23 -17 -8 -22 19 -6 7 5
12 4 12 -2 0 -6 -5 -11 -11 -11 -5 0 -8 -4 -5 -9 3 -5 -1 -14 -9 -21 -10 -9
-15 -9 -15 -1 0 6 5 11 11 11 5 0 7 5 4 10 -5 8 -11 8 -20 0 -9 -8 -15 -8 -20
0 -3 6 -10 8 -15 5 -5 -3 -11 -1 -15 5 -3 5 -3 10 2 11 28 2 48 9 51 17 1 5
10 9 18 9 12 0 10 -5 -7 -18z m65 -19 c4 -25 3 -31 -4 -20 -6 10 -10 11 -10 3
0 -7 -4 -13 -10 -13 -5 0 -10 7 -10 15 0 8 5 15 11 15 5 0 7 5 4 10 -3 6 -3
15 0 21 9 14 11 11 19 -31z m469 12 c-5 -21 -6 -21 -20 -5 -8 10 -12 12 -8 6
3 -7 1 -13 -4 -13 -6 0 -11 7 -11 16 0 11 6 14 20 9 13 -4 20 -2 20 6 0 7 2
10 5 8 2 -3 2 -15 -2 -27z m287 11 c10 9 12 9 8 -3 -3 -9 -16 -15 -31 -14 -15
1 -27 -3 -27 -7 0 -5 5 -9 10 -9 6 0 10 -5 10 -11 0 -8 -4 -9 -13 0 -8 6 -16
9 -19 6 -2 -3 -5 2 -5 10 0 8 9 17 19 21 10 3 16 11 12 17 -3 7 1 4 9 -5 11
-14 16 -15 27 -5z m261 0 c13 -16 12 -17 -3 -4 -10 7 -18 15 -18 17 0 8 8 3
21 -13z m213 -16 c-6 -19 -5 -20 9 -9 9 8 21 11 27 7 5 -3 10 -2 10 3 0 6 7
13 16 16 15 6 15 4 3 -11 -13 -15 -12 -16 8 -11 16 4 20 2 16 -8 -3 -9 -15
-12 -30 -10 -13 3 -36 1 -49 -4 -18 -7 -23 -7 -18 1 4 8 -1 9 -16 4 l-22 -7
21 21 c12 12 19 27 15 33 -4 7 -3 8 5 4 7 -5 9 -16 5 -29z m173 19 c-4 7 3 12
18 12 19 0 23 -4 15 -13 -18 -21 2 -25 28 -5 30 24 38 25 46 4 5 -13 1 -15
-21 -9 -26 6 -27 5 -9 -8 10 -7 16 -20 13 -28 -4 -9 -6 -7 -6 6 -1 17 -3 17
-11 5 -7 -11 -10 -11 -10 -2 0 7 -4 10 -10 7 -22 -14 -71 -13 -77 1 -3 7 -9
11 -14 8 -5 -3 -7 -9 -5 -13 3 -3 -3 -7 -12 -7 -11 0 -17 8 -17 22 0 19 4 22
29 17 23 -5 27 -3 21 8 -7 11 -5 11 10 -1 10 -8 16 -10 12 -4z m473 1 c0 -5 7
-7 15 -4 8 4 17 2 20 -4 4 -5 3 -9 -2 -8 -12 3 -63 -23 -59 -30 2 -3 -7 -7
-21 -8 -15 0 -22 2 -16 5 6 4 9 15 7 25 -1 9 2 17 7 17 5 0 9 -6 10 -12 0 -10
2 -10 6 0 2 6 10 9 16 5 8 -5 8 -2 0 8 -10 13 -10 16 2 16 8 0 15 -5 15 -10z
m105 -3 c15 10 26 12 30 6 4 -6 -4 -14 -17 -19 -21 -8 -21 -10 -5 -16 19 -8
70 13 62 24 -2 4 8 6 23 6 15 -1 33 3 40 8 7 6 12 6 12 -1 0 -6 -4 -14 -10
-17 -20 -12 -9 -25 16 -21 15 3 23 2 19 -2 -3 -4 -16 -7 -28 -7 -12 -1 -28 -4
-34 -8 -8 -5 -13 -4 -13 2 0 6 5 11 10 11 6 0 10 7 10 16 0 13 -2 13 -17 -2
-10 -10 -18 -21 -18 -25 0 -4 -4 -11 -9 -16 -5 -4 -7 -3 -3 3 4 7 -7 11 -30
12 -20 1 -40 7 -43 13 -6 8 -13 8 -30 -1 -26 -14 -33 -9 -24 14 5 14 9 15 15
4 6 -9 9 -6 10 12 1 18 3 20 6 7 4 -17 7 -17 28 -3z m435 3 c0 -4 4 -6 9 -3 5
4 4 -5 -2 -19 -8 -17 -13 -20 -15 -10 -2 8 -7 15 -12 15 -4 0 -10 6 -13 13 -3
8 3 13 14 13 11 0 19 -4 19 -9z m79 -8 c-23 -17 -8 -22 19 -6 7 5 12 4 12 -2
0 -6 -5 -11 -11 -11 -5 0 -8 -4 -5 -9 3 -5 -1 -14 -9 -21 -10 -9 -15 -9 -15
-1 0 6 5 11 11 11 5 0 7 5 4 10 -5 8 -11 8 -20 0 -9 -8 -15 -8 -20 0 -3 6 -10
8 -15 5 -5 -3 -11 -1 -15 5 -3 5 -3 10 2 11 28 2 48 9 51 17 1 5 10 9 18 9 12
0 10 -5 -7 -18z m65 -19 c4 -25 3 -31 -4 -20 -6 10 -10 11 -10 3 0 -7 -4 -13
-10 -13 -5 0 -10 7 -10 15 0 8 5 15 11 15 5 0 7 5 4 10 -3 6 -3 15 0 21 9 14
11 11 19 -31z m469 12 c-5 -21 -6 -21 -20 -5 -8 10 -12 12 -8 6 3 -7 1 -13 -4
-13 -6 0 -11 7 -11 16 0 11 6 14 20 9 13 -4 20 -2 20 6 0 7 2 10 5 8 2 -3 2
-15 -2 -27z m287 11 c10 9 12 9 8 -3 -3 -9 -16 -15 -31 -14 -15 1 -27 -3 -27
-7 0 -5 5 -9 10 -9 6 0 10 -5 10 -11 0 -8 -4 -9 -13 0 -8 6 -16 9 -19 6 -2 -3
-5 2 -5 10 0 8 9 17 19 21 10 3 16 11 12 17 -3 7 1 4 9 -5 11 -14 16 -15 27
-5z m261 0 c13 -16 12 -17 -3 -4 -10 7 -18 15 -18 17 0 8 8 3 21 -13z m213
-16 c-6 -19 -5 -20 9 -9 9 8 21 11 27 7 5 -3 10 -2 10 3 0 6 7 13 16 16 15 6
15 4 3 -11 -13 -15 -12 -16 8 -11 16 4 20 2 16 -8 -3 -9 -15 -12 -30 -10 -13
3 -36 1 -49 -4 -18 -7 -23 -7 -18 1 4 8 -1 9 -16 4 l-22 -7 21 21 c12 12 19
27 15 33 -4 7 -3 8 5 4 7 -5 9 -16 5 -29z m173 19 c-4 7 3 12 18 12 19 0 23
-4 15 -13 -18 -21 2 -25 28 -5 30 24 38 25 46 4 5 -13 1 -15 -21 -9 -26 6 -27
5 -9 -8 10 -7 16 -20 13 -28 -4 -9 -6 -7 -6 6 -1 17 -3 17 -11 5 -7 -11 -10
-11 -10 -2 0 7 -4 10 -10 7 -22 -14 -71 -13 -77 1 -3 7 -9 11 -14 8 -5 -3 -7
-9 -5 -13 3 -3 -3 -7 -12 -7 -11 0 -17 8 -17 22 0 19 4 22 29 17 23 -5 27 -3
21 8 -7 11 -5 11 10 -1 10 -8 16 -10 12 -4z m473 1 c0 -5 7 -7 15 -4 8 4 17 2
20 -4 4 -5 3 -9 -2 -8 -12 3 -63 -23 -59 -30 2 -3 -7 -7 -21 -8 -15 0 -22 2
-16 5 6 4 9 15 7 25 -1 9 2 17 7 17 5 0 9 -6 10 -12 0 -10 2 -10 6 0 2 6 10 9
16 5 8 -5 8 -2 0 8 -10 13 -10 16 2 16 8 0 15 -5 15 -10z m105 -3 c15 10 26
12 30 6 4 -6 -4 -14 -17 -19 -21 -8 -21 -10 -5 -16 19 -8 70 13 62 24 -2 4 8
6 23 6 15 -1 33 3 40 8 7 6 12 6 12 -1 0 -6 -4 -14 -10 -17 -20 -12 -9 -25 16
-21 15 3 23 2 19 -2 -3 -4 -16 -7 -28 -7 -12 -1 -28 -4 -34 -8 -8 -5 -13 -4
-13 2 0 6 5 11 10 11 6 0 10 7 10 16 0 13 -2 13 -17 -2 -10 -10 -18 -21 -18
-25 0 -4 -4 -11 -9 -16 -5 -4 -7 -3 -3 3 4 7 -7 11 -30 12 -20 1 -40 7 -43 13
-6 8 -13 8 -30 -1 -26 -14 -33 -9 -24 14 5 14 9 15 15 4 6 -9 9 -6 10 12 1 18
3 20 6 7 4 -17 7 -17 28 -3z m435 3 c0 -4 4 -6 9 -3 5 4 4 -5 -2 -19 -8 -17
-13 -20 -15 -10 -2 8 -7 15 -12 15 -4 0 -10 6 -13 13 -3 8 3 13 14 13 11 0 19
-4 19 -9z m79 -8 c-23 -17 -8 -22 19 -6 7 5 12 4 12 -2 0 -6 -5 -11 -11 -11
-5 0 -8 -4 -5 -9 3 -5 -1 -14 -9 -21 -10 -9 -15 -9 -15 -1 0 6 5 11 11 11 5 0
7 5 4 10 -5 8 -11 8 -20 0 -9 -8 -15 -8 -20 0 -3 6 -10 8 -15 5 -5 -3 -11 -1
-15 5 -3 5 -3 10 2 11 28 2 48 9 51 17 1 5 10 9 18 9 12 0 10 -5 -7 -18z m65
-19 c4 -25 3 -31 -4 -20 -6 10 -10 11 -10 3 0 -7 -4 -13 -10 -13 -5 0 -10 7
-10 15 0 8 5 15 11 15 5 0 7 5 4 10 -3 6 -3 15 0 21 9 14 11 11 19 -31z m469
12 c-5 -21 -6 -21 -20 -5 -8 10 -12 12 -8 6 3 -7 1 -13 -4 -13 -6 0 -11 7 -11
16 0 11 6 14 20 9 13 -4 20 -2 20 6 0 7 2 10 5 8 2 -3 2 -15 -2 -27z m287 11
c10 9 12 9 8 -3 -3 -9 -16 -15 -31 -14 -15 1 -27 -3 -27 -7 0 -5 5 -9 10 -9 6
0 10 -5 10 -11 0 -8 -4 -9 -13 0 -8 6 -16 9 -19 6 -2 -3 -5 2 -5 10 0 8 9 17
19 21 10 3 16 11 12 17 -3 7 1 4 9 -5 11 -14 16 -15 27 -5z m261 0 c13 -16 12
-17 -3 -4 -10 7 -18 15 -18 17 0 8 8 3 21 -13z m213 -16 c-6 -19 -5 -20 9 -9
9 8 21 11 27 7 5 -3 10 -2 10 3 0 6 7 13 16 16 15 6 15 4 3 -11 -13 -15 -12
-16 8 -11 16 4 20 2 16 -8 -3 -9 -15 -12 -30 -10 -13 3 -36 1 -49 -4 -18 -7
-23 -7 -18 1 4 8 -1 9 -16 4 l-22 -7 21 21 c12 12 19 27 15 33 -4 7 -3 8 5 4
7 -5 9 -16 5 -29z m173 19 c-4 7 3 12 18 12 19 0 23 -4 15 -13 -18 -21 2 -25
28 -5 30 24 38 25 46 4 5 -13 1 -15 -21 -9 -26 6 -27 5 -9 -8 10 -7 16 -20 13
-28 -4 -9 -6 -7 -6 6 -1 17 -3 17 -11 5 -7 -11 -10 -11 -10 -2 0 7 -4 10 -10
7 -22 -14 -71 -13 -77 1 -3 7 -9 11 -14 8 -5 -3 -7 -9 -5 -13 3 -3 -3 -7 -12
-7 -11 0 -17 8 -17 22 0 19 4 22 29 17 23 -5 27 -3 21 8 -7 11 -5 11 10 -1 10
-8 16 -10 12 -4z m473 1 c0 -5 7 -7 15 -4 8 4 17 2 20 -4 4 -5 3 -9 -2 -8 -12
3 -63 -23 -59 -30 2 -3 -7 -7 -21 -8 -15 0 -22 2 -16 5 6 4 9 15 7 25 -1 9 2
17 7 17 5 0 9 -6 10 -12 0 -10 2 -10 6 0 2 6 10 9 16 5 8 -5 8 -2 0 8 -10 13
-10 16 2 16 8 0 15 -5 15 -10z m105 -3 c15 10 26 12 30 6 4 -6 -4 -14 -17 -19
-21 -8 -21 -10 -5 -16 19 -8 70 13 62 24 -2 4 8 6 23 6 15 -1 33 3 40 8 7 6
12 6 12 -1 0 -6 -4 -14 -10 -17 -20 -12 -9 -25 16 -21 15 3 23 2 19 -2 -3 -4
-16 -7 -28 -7 -12 -1 -28 -4 -34 -8 -8 -5 -13 -4 -13 2 0 6 5 11 10 11 6 0 10
7 10 16 0 13 -2 13 -17 -2 -10 -10 -18 -21 -18 -25 0 -4 -4 -11 -9 -16 -5 -4
-7 -3 -3 3 4 7 -7 11 -30 12 -20 1 -40 7 -43 13 -6 8 -13 8 -30 -1 -26 -14
-33 -9 -24 14 5 14 9 15 15 4 6 -9 9 -6 10 12 1 18 3 20 6 7 4 -17 7 -17 28
-3z m435 3 c0 -4 4 -6 9 -3 5 4 4 -5 -2 -19 -8 -17 -13 -20 -15 -10 -2 8 -7
15 -12 15 -4 0 -10 6 -13 13 -3 8 3 13 14 13 11 0 19 -4 19 -9z m79 -8 c-23
-17 -8 -22 19 -6 7 5 12 4 12 -2 0 -6 -5 -11 -11 -11 -5 0 -8 -4 -5 -9 3 -5
-1 -14 -9 -21 -10 -9 -15 -9 -15 -1 0 6 5 11 11 11 5 0 7 5 4 10 -5 8 -11 8
-20 0 -9 -8 -15 -8 -20 0 -3 6 -10 8 -15 5 -5 -3 -11 -1 -15 5 -3 5 -3 10 2
11 28 2 48 9 51 17 1 5 10 9 18 9 12 0 10 -5 -7 -18z m65 -19 c4 -25 3 -31 -4
-20 -6 10 -10 11 -10 3 0 -7 -4 -13 -10 -13 -5 0 -10 7 -10 15 0 8 5 15 11 15
5 0 7 5 4 10 -3 6 -3 15 0 21 9 14 11 11 19 -31z m469 12 c-5 -21 -6 -21 -20
-5 -8 10 -12 12 -8 6 3 -7 1 -13 -4 -13 -6 0 -11 7 -11 16 0 11 6 14 20 9 13
-4 20 -2 20 6 0 7 2 10 5 8 2 -3 2 -15 -2 -27z m287 11 c10 9 12 9 8 -3 -3 -9
-16 -15 -31 -14 -15 1 -27 -3 -27 -7 0 -5 5 -9 10 -9 6 0 10 -5 10 -11 0 -8
-4 -9 -13 0 -8 6 -16 9 -19 6 -2 -3 -5 2 -5 10 0 8 9 17 19 21 10 3 16 11 12
17 -3 7 1 4 9 -5 11 -14 16 -15 27 -5z m261 0 c13 -16 12 -17 -3 -4 -10 7 -18
15 -18 17 0 8 8 3 21 -13z m213 -16 c-6 -19 -5 -20 9 -9 9 8 21 11 27 7 5 -3
10 -2 10 3 0 6 7 13 16 16 15 6 15 4 3 -11 -13 -15 -12 -16 8 -11 16 4 20 2
16 -8 -3 -9 -15 -12 -30 -10 -13 3 -36 1 -49 -4 -18 -7 -23 -7 -18 1 4 8 -1 9
-16 4 l-22 -7 21 21 c12 12 19 27 15 33 -4 7 -3 8 5 4 7 -5 9 -16 5 -29z m173
19 c-4 7 3 12 18 12 19 0 23 -4 15 -13 -18 -21 2 -25 28 -5 30 24 38 25 46 4
5 -13 1 -15 -21 -9 -26 6 -27 5 -9 -8 10 -7 16 -20 13 -28 -4 -9 -6 -7 -6 6
-1 17 -3 17 -11 5 -7 -11 -10 -11 -10 -2 0 7 -4 10 -10 7 -22 -14 -71 -13 -77
1 -3 7 -9 11 -14 8 -5 -3 -7 -9 -5 -13 3 -3 -3 -7 -12 -7 -11 0 -17 8 -17 22
0 19 4 22 29 17 23 -5 27 -3 21 8 -7 11 -5 11 10 -1 10 -8 16 -10 12 -4z m473
1 c0 -5 7 -7 15 -4 8 4 17 2 20 -4 4 -5 3 -9 -2 -8 -12 3 -63 -23 -59 -30 2
-3 -7 -7 -21 -8 -15 0 -22 2 -16 5 6 4 9 15 7 25 -1 9 2 17 7 17 5 0 9 -6 10
-12 0 -10 2 -10 6 0 2 6 10 9 16 5 8 -5 8 -2 0 8 -10 13 -10 16 2 16 8 0 15
-5 15 -10z m105 -3 c15 10 26 12 30 6 4 -6 -4 -14 -17 -19 -21 -8 -21 -10 -5
-16 19 -8 70 13 62 24 -2 4 8 6 23 6 15 -1 33 3 40 8 7 6 12 6 12 -1 0 -6 -4
-14 -10 -17 -20 -12 -9 -25 16 -21 15 3 23 2 19 -2 -3 -4 -16 -7 -28 -7 -12
-1 -28 -4 -34 -8 -8 -5 -13 -4 -13 2 0 6 5 11 10 11 6 0 10 7 10 16 0 13 -2
13 -17 -2 -10 -10 -18 -21 -18 -25 0 -4 -4 -11 -9 -16 -5 -4 -7 -3 -3 3 4 7
-7 11 -30 12 -20 1 -40 7 -43 13 -6 8 -13 8 -30 -1 -26 -14 -33 -9 -24 14 5
14 9 15 15 4 6 -9 9 -6 10 12 1 18 3 20 6 7 4 -17 7 -17 28 -3z m435 3 c0 -4
4 -6 9 -3 5 4 4 -5 -2 -19 -8 -17 -13 -20 -15 -10 -2 8 -7 15 -12 15 -4 0 -10
6 -13 13 -3 8 3 13 14 13 11 0 19 -4 19 -9z m79 -8 c-23 -17 -8 -22 19 -6 7 5
12 4 12 -2 0 -6 -5 -11 -11 -11 -5 0 -8 -4 -5 -9 3 -5 -1 -14 -9 -21 -10 -9
-15 -9 -15 -1 0 6 5 11 11 11 5 0 7 5 4 10 -5 8 -11 8 -20 0 -9 -8 -15 -8 -20
0 -3 6 -10 8 -15 5 -5 -3 -11 -1 -15 5 -3 5 -3 10 2 11 28 2 48 9 51 17 1 5
10 9 18 9 12 0 10 -5 -7 -18z m65 -19 c4 -25 3 -31 -4 -20 -6 10 -10 11 -10 3
0 -7 -4 -13 -10 -13 -5 0 -10 7 -10 15 0 8 5 15 11 15 5 0 7 5 4 10 -3 6 -3
15 0 21 9 14 11 11 19 -31z m469 12 c-5 -21 -6 -21 -20 -5 -8 10 -12 12 -8 6
3 -7 1 -13 -4 -13 -6 0 -11 7 -11 16 0 11 6 14 20 9 13 -4 20 -2 20 6 0 7 2
10 5 8 2 -3 2 -15 -2 -27z m287 11 c10 9 12 9 8 -3 -3 -9 -16 -15 -31 -14 -15
1 -27 -3 -27 -7 0 -5 5 -9 10 -9 6 0 10 -5 10 -11 0 -8 -4 -9 -13 0 -8 6 -16
9 -19 6 -2 -3 -5 2 -5 10 0 8 9 17 19 21 10 3 16 11 12 17 -3 7 1 4 9 -5 11
-14 16 -15 27 -5z m261 0 c13 -16 12 -17 -3 -4 -10 7 -18 15 -18 17 0 8 8 3
21 -13z m213 -16 c-6 -19 -5 -20 9 -9 9 8 21 11 27 7 5 -3 10 -2 10 3 0 6 7
13 16 16 15 6 15 4 3 -11 -13 -15 -12 -16 8 -11 16 4 20 2 16 -8 -3 -9 -15
-12 -30 -10 -13 3 -36 1 -49 -4 -18 -7 -23 -7 -18 1 4 8 -1 9 -16 4 l-22 -7
21 21 c12 12 19 27 15 33 -4 7 -3 8 5 4 7 -5 9 -16 5 -29z m173 19 c-4 7 3 12
18 12 19 0 23 -4 15 -13 -18 -21 2 -25 28 -5 30 24 38 25 46 4 5 -13 1 -15
-21 -9 -26 6 -27 5 -9 -8 10 -7 16 -20 13 -28 -4 -9 -6 -7 -6 6 -1 17 -3 17
-11 5 -7 -11 -10 -11 -10 -2 0 7 -4 10 -10 7 -22 -14 -71 -13 -77 1 -3 7 -9
11 -14 8 -5 -3 -7 -9 -5 -13 3 -3 -3 -7 -12 -7 -11 0 -17 8 -17 22 0 19 4 22
29 17 23 -5 27 -3 21 8 -7 11 -5 11 10 -1 10 -8 16 -10 12 -4z m473 1 c0 -5 7
-7 15 -4 8 4 17 2 20 -4 4 -5 3 -9 -2 -8 -12 3 -63 -23 -59 -30 2 -3 -7 -7
-21 -8 -15 0 -22 2 -16 5 6 4 9 15 7 25 -1 9 2 17 7 17 5 0 9 -6 10 -12 0 -10
2 -10 6 0 2 6 10 9 16 5 8 -5 8 -2 0 8 -10 13 -10 16 2 16 8 0 15 -5 15 -10z
m105 -3 c15 10 26 12 30 6 4 -6 -4 -14 -17 -19 -21 -8 -21 -10 -5 -16 19 -8
70 13 62 24 -2 4 8 6 23 6 15 -1 33 3 40 8 7 6 12 6 12 -1 0 -6 -4 -14 -10
-17 -20 -12 -9 -25 16 -21 15 3 23 2 19 -2 -3 -4 -16 -7 -28 -7 -12 -1 -28 -4
-34 -8 -8 -5 -13 -4 -13 2 0 6 5 11 10 11 6 0 10 7 10 16 0 13 -2 13 -17 -2
-10 -10 -18 -21 -18 -25 0 -4 -4 -11 -9 -16 -5 -4 -7 -3 -3 3 4 7 -7 11 -30
12 -20 1 -40 7 -43 13 -6 8 -13 8 -30 -1 -26 -14 -33 -9 -24 14 5 14 9 15 15
4 6 -9 9 -6 10 12 1 18 3 20 6 7 4 -17 7 -17 28 -3z m435 3 c0 -4 4 -6 9 -3 5
4 4 -5 -2 -19 -8 -17 -13 -20 -15 -10 -2 8 -7 15 -12 15 -4 0 -10 6 -13 13 -3
8 3 13 14 13 11 0 19 -4 19 -9z m79 -8 c-23 -17 -8 -22 19 -6 7 5 12 4 12 -2
0 -6 -5 -11 -11 -11 -5 0 -8 -4 -5 -9 3 -5 -1 -14 -9 -21 -10 -9 -15 -9 -15
-1 0 6 5 11 11 11 5 0 7 5 4 10 -5 8 -11 8 -20 0 -9 -8 -15 -8 -20 0 -3 6 -10
8 -15 5 -5 -3 -11 -1 -15 5 -3 5 -3 10 2 11 28 2 48 9 51 17 1 5 10 9 18 9 12
0 10 -5 -7 -18z m65 -19 c4 -25 3 -31 -4 -20 -6 10 -10 11 -10 3 0 -7 -4 -13
-10 -13 -5 0 -10 7 -10 15 0 8 5 15 11 15 5 0 7 5 4 10 -3 6 -3 15 0 21 9 14
11 11 19 -31z m469 12 c-5 -21 -6 -21 -20 -5 -8 10 -12 12 -8 6 3 -7 1 -13 -4
-13 -6 0 -11 7 -11 16 0 11 6 14 20 9 13 -4 20 -2 20 6 0 7 2 10 5 8 2 -3 2
-15 -2 -27z m287 11 c10 9 12 9 8 -3 -3 -9 -16 -15 -31 -14 -15 1 -27 -3 -27
-7 0 -5 5 -9 10 -9 6 0 10 -5 10 -11 0 -8 -4 -9 -13 0 -8 6 -16 9 -19 6 -2 -3
-5 2 -5 10 0 8 9 17 19 21 10 3 16 11 12 17 -3 7 1 4 9 -5 11 -14 16 -15 27
-5z m261 0 c13 -16 12 -17 -3 -4 -10 7 -18 15 -18 17 0 8 8 3 21 -13z m213
-16 c-6 -19 -5 -20 9 -9 9 8 21 11 27 7 5 -3 10 -2 10 3 0 6 7 13 16 16 15 6
15 4 3 -11 -13 -15 -12 -16 8 -11 16 4 20 2 16 -8 -3 -9 -15 -12 -30 -10 -13
3 -36 1 -49 -4 -18 -7 -23 -7 -18 1 4 8 -1 9 -16 4 l-22 -7 21 21 c12 12 19
27 15 33 -4 7 -3 8 5 4 7 -5 9 -16 5 -29z m173 19 c-4 7 3 12 18 12 19 0 23
-4 15 -13 -18 -21 2 -25 28 -5 30 24 38 25 46 4 5 -13 1 -15 -21 -9 -26 6 -27
5 -9 -8 10 -7 16 -20 13 -28 -4 -9 -6 -7 -6 6 -1 17 -3 17 -11 5 -7 -11 -10
-11 -10 -2 0 7 -4 10 -10 7 -22 -14 -71 -13 -77 1 -3 7 -9 11 -14 8 -5 -3 -7
-9 -5 -13 3 -3 -3 -7 -12 -7 -11 0 -17 8 -17 22 0 19 4 22 29 17 23 -5 27 -3
21 8 -7 11 -5 11 10 -1 10 -8 16 -10 12 -4z m473 1 c0 -5 7 -7 15 -4 8 4 17 2
20 -4 4 -5 3 -9 -2 -8 -12 3 -63 -23 -59 -30 2 -3 -7 -7 -21 -8 -15 0 -22 2
-16 5 6 4 9 15 7 25 -1 9 2 17 7 17 5 0 9 -6 10 -12 0 -10 2 -10 6 0 2 6 10 9
16 5 8 -5 8 -2 0 8 -10 13 -10 16 2 16 8 0 15 -5 15 -10z m105 -3 c15 10 26
12 30 6 4 -6 -4 -14 -17 -19 -21 -8 -21 -10 -5 -16 19 -8 70 13 62 24 -2 4 8
6 23 6 15 -1 33 3 40 8 7 6 12 6 12 -1 0 -6 -4 -14 -10 -17 -20 -12 -9 -25 16
-21 15 3 23 2 19 -2 -3 -4 -16 -7 -28 -7 -12 -1 -28 -4 -34 -8 -8 -5 -13 -4
-13 2 0 6 5 11 10 11 6 0 10 7 10 16 0 13 -2 13 -17 -2 -10 -10 -18 -21 -18
-25 0 -4 -4 -11 -9 -16 -5 -4 -7 -3 -3 3 4 7 -7 11 -30 12 -20 1 -40 7 -43 13
-6 8 -13 8 -30 -1 -26 -14 -33 -9 -24 14 5 14 9 15 15 4 6 -9 9 -6 10 12 1 18
3 20 6 7 4 -17 7 -17 28 -3z m435 3 c0 -4 4 -6 9 -3 5 4 4 -5 -2 -19 -8 -17
-13 -20 -15 -10 -2 8 -7 15 -12 15 -4 0 -10 6 -13 13 -3 8 3 13 14 13 11 0 19
-4 19 -9z m79 -8 c-23 -17 -8 -22 19 -6 7 5 12 4 12 -2 0 -6 -5 -11 -11 -11
-5 0 -8 -4 -5 -9 3 -5 -1 -14 -9 -21 -10 -9 -15 -9 -15 -1 0 6 5 11 11 11 5 0
7 5 4 10 -5 8 -11 8 -20 0 -9 -8 -15 -8 -20 0 -3 6 -10 8 -15 5 -5 -3 -11 -1
-15 5 -3 5 -3 10 2 11 28 2 48 9 51 17 1 5 10 9 18 9 12 0 10 -5 -7 -18z m65
-19 c4 -25 3 -31 -4 -20 -6 10 -10 11 -10 3 0 -7 -4 -13 -10 -13 -5 0 -10 7
-10 15 0 8 5 15 11 15 5 0 7 5 4 10 -3 6 -3 15 0 21 9 14 11 11 19 -31z m469
12 c-5 -21 -6 -21 -20 -5 -8 10 -12 12 -8 6 3 -7 1 -13 -4 -13 -6 0 -11 7 -11
16 0 11 6 14 20 9 13 -4 20 -2 20 6 0 7 2 10 5 8 2 -3 2 -15 -2 -27z m287 11
c10 9 12 9 8 -3 -3 -9 -16 -15 -31 -14 -15 1 -27 -3 -27 -7 0 -5 5 -9 10 -9 6
0 10 -5 10 -11 0 -8 -4 -9 -13 0 -8 6 -16 9 -19 6 -2 -3 -5 2 -5 10 0 8 9 17
19 21 10 3 16 11 12 17 -3 7 1 4 9 -5 11 -14 16 -15 27 -5z m-24200 -3 c0 -5
-2 -10 -4 -10 -3 0 -8 5 -11 10 -3 6 -1 10 4 10 6 0 11 -4 11 -10z m790 -2 c0
-5 -7 -11 -15 -14 -8 -4 -12 -10 -9 -15 3 -5 14 1 25 13 12 13 18 17 14 11 -3
-7 -1 -13 4 -13 6 0 11 -5 11 -11 0 -5 -5 -7 -10 -4 -6 4 -17 2 -24 -4 -19
-16 -59 23 -41 40 7 8 45 5 45 -3z m666 -27 c-19 -19 -30 -9 -21 19 5 17 9 19
21 9 13 -11 13 -14 0 -28z m1104 29 c0 -5 -2 -10 -4 -10 -3 0 -8 5 -11 10 -3
6 -1 10 4 10 6 0 11 -4 11 -10z m790 -2 c0 -5 -7 -11 -15 -14 -8 -4 -12 -10
-9 -15 3 -5 14 1 25 13 12 13 18 17 14 11 -3 -7 -1 -13 4 -13 6 0 11 -5 11
-11 0 -5 -5 -7 -10 -4 -6 4 -17 2 -24 -4 -19 -16 -59 23 -41 40 7 8 45 5 45
-3z m666 -27 c-19 -19 -30 -9 -21 19 5 17 9 19 21 9 13 -11 13 -14 0 -28z
m1104 29 c0 -5 -2 -10 -4 -10 -3 0 -8 5 -11 10 -3 6 -1 10 4 10 6 0 11 -4 11
-10z m790 -2 c0 -5 -7 -11 -15 -14 -8 -4 -12 -10 -9 -15 3 -5 14 1 25 13 12
13 18 17 14 11 -3 -7 -1 -13 4 -13 6 0 11 -5 11 -11 0 -5 -5 -7 -10 -4 -6 4
-17 2 -24 -4 -19 -16 -59 23 -41 40 7 8 45 5 45 -3z m666 -27 c-19 -19 -30 -9
-21 19 5 17 9 19 21 9 13 -11 13 -14 0 -28z m1104 29 c0 -5 -2 -10 -4 -10 -3
0 -8 5 -11 10 -3 6 -1 10 4 10 6 0 11 -4 11 -10z m790 -2 c0 -5 -7 -11 -15
-14 -8 -4 -12 -10 -9 -15 3 -5 14 1 25 13 12 13 18 17 14 11 -3 -7 -1 -13 4
-13 6 0 11 -5 11 -11 0 -5 -5 -7 -10 -4 -6 4 -17 2 -24 -4 -19 -16 -59 23 -41
40 7 8 45 5 45 -3z m666 -27 c-19 -19 -30 -9 -21 19 5 17 9 19 21 9 13 -11 13
-14 0 -28z m1104 29 c0 -5 -2 -10 -4 -10 -3 0 -8 5 -11 10 -3 6 -1 10 4 10 6
0 11 -4 11 -10z m790 -2 c0 -5 -7 -11 -15 -14 -8 -4 -12 -10 -9 -15 3 -5 14 1
25 13 12 13 18 17 14 11 -3 -7 -1 -13 4 -13 6 0 11 -5 11 -11 0 -5 -5 -7 -10
-4 -6 4 -17 2 -24 -4 -19 -16 -59 23 -41 40 7 8 45 5 45 -3z m666 -27 c-19
-19 -30 -9 -21 19 5 17 9 19 21 9 13 -11 13 -14 0 -28z m1104 29 c0 -5 -2 -10
-4 -10 -3 0 -8 5 -11 10 -3 6 -1 10 4 10 6 0 11 -4 11 -10z m790 -2 c0 -5 -7
-11 -15 -14 -8 -4 -12 -10 -9 -15 3 -5 14 1 25 13 12 13 18 17 14 11 -3 -7 -1
-13 4 -13 6 0 11 -5 11 -11 0 -5 -5 -7 -10 -4 -6 4 -17 2 -24 -4 -19 -16 -59
23 -41 40 7 8 45 5 45 -3z m666 -27 c-19 -19 -30 -9 -21 19 5 17 9 19 21 9 13
-11 13 -14 0 -28z m1104 29 c0 -5 -2 -10 -4 -10 -3 0 -8 5 -11 10 -3 6 -1 10
4 10 6 0 11 -4 11 -10z m790 -2 c0 -5 -7 -11 -15 -14 -8 -4 -12 -10 -9 -15 3
-5 14 1 25 13 12 13 18 17 14 11 -3 -7 -1 -13 4 -13 6 0 11 -5 11 -11 0 -5 -5
-7 -10 -4 -6 4 -17 2 -24 -4 -19 -16 -59 23 -41 40 7 8 45 5 45 -3z m666 -27
c-19 -19 -30 -9 -21 19 5 17 9 19 21 9 13 -11 13 -14 0 -28z m1104 29 c0 -5
-2 -10 -4 -10 -3 0 -8 5 -11 10 -3 6 -1 10 4 10 6 0 11 -4 11 -10z m790 -2 c0
-5 -7 -11 -15 -14 -8 -4 -12 -10 -9 -15 3 -5 14 1 25 13 12 13 18 17 14 11 -3
-7 -1 -13 4 -13 6 0 11 -5 11 -11 0 -5 -5 -7 -10 -4 -6 4 -17 2 -24 -4 -19
-16 -59 23 -41 40 7 8 45 5 45 -3z m666 -27 c-19 -19 -30 -9 -21 19 5 17 9 19
21 9 13 -11 13 -14 0 -28z m1104 29 c0 -5 -2 -10 -4 -10 -3 0 -8 5 -11 10 -3
6 -1 10 4 10 6 0 11 -4 11 -10z m790 -2 c0 -5 -7 -11 -15 -14 -8 -4 -12 -10
-9 -15 3 -5 14 1 25 13 12 13 18 17 14 11 -3 -7 -1 -13 4 -13 6 0 11 -5 11
-11 0 -5 -5 -7 -10 -4 -6 4 -17 2 -24 -4 -19 -16 -59 23 -41 40 7 8 45 5 45
-3z m666 -27 c-19 -19 -30 -9 -21 19 5 17 9 19 21 9 13 -11 13 -14 0 -28z
m1104 29 c0 -5 -2 -10 -4 -10 -3 0 -8 5 -11 10 -3 6 -1 10 4 10 6 0 11 -4 11
-10z m790 -2 c0 -5 -7 -11 -15 -14 -8 -4 -12 -10 -9 -15 3 -5 14 1 25 13 12
13 18 17 14 11 -3 -7 -1 -13 4 -13 6 0 11 -5 11 -11 0 -5 -5 -7 -10 -4 -6 4
-17 2 -24 -4 -19 -16 -59 23 -41 40 7 8 45 5 45 -3z m-23140 -17 c0 -26 -37
-34 -43 -9 -4 16 -3 17 9 7 11 -9 14 -8 14 5 0 9 5 16 10 16 6 0 10 -8 10 -19z
m705 9 c4 -6 -6 -10 -22 -10 -22 0 -25 2 -13 10 19 12 27 12 35 0z m1855 -9
c0 -26 -37 -34 -43 -9 -4 16 -3 17 9 7 11 -9 14 -8 14 5 0 9 5 16 10 16 6 0
10 -8 10 -19z m705 9 c4 -6 -6 -10 -22 -10 -22 0 -25 2 -13 10 19 12 27 12 35
0z m1855 -9 c0 -26 -37 -34 -43 -9 -4 16 -3 17 9 7 11 -9 14 -8 14 5 0 9 5 16
10 16 6 0 10 -8 10 -19z m705 9 c4 -6 -6 -10 -22 -10 -22 0 -25 2 -13 10 19
12 27 12 35 0z m1855 -9 c0 -26 -37 -34 -43 -9 -4 16 -3 17 9 7 11 -9 14 -8
14 5 0 9 5 16 10 16 6 0 10 -8 10 -19z m705 9 c4 -6 -6 -10 -22 -10 -22 0 -25
2 -13 10 19 12 27 12 35 0z m1855 -9 c0 -26 -37 -34 -43 -9 -4 16 -3 17 9 7
11 -9 14 -8 14 5 0 9 5 16 10 16 6 0 10 -8 10 -19z m705 9 c4 -6 -6 -10 -22
-10 -22 0 -25 2 -13 10 19 12 27 12 35 0z m1855 -9 c0 -26 -37 -34 -43 -9 -4
16 -3 17 9 7 11 -9 14 -8 14 5 0 9 5 16 10 16 6 0 10 -8 10 -19z m705 9 c4 -6
-6 -10 -22 -10 -22 0 -25 2 -13 10 19 12 27 12 35 0z m1855 -9 c0 -26 -37 -34
-43 -9 -4 16 -3 17 9 7 11 -9 14 -8 14 5 0 9 5 16 10 16 6 0 10 -8 10 -19z
m705 9 c4 -6 -6 -10 -22 -10 -22 0 -25 2 -13 10 19 12 27 12 35 0z m1855 -9
c0 -26 -37 -34 -43 -9 -4 16 -3 17 9 7 11 -9 14 -8 14 5 0 9 5 16 10 16 6 0
10 -8 10 -19z m705 9 c4 -6 -6 -10 -22 -10 -22 0 -25 2 -13 10 19 12 27 12 35
0z m1855 -9 c0 -26 -37 -34 -43 -9 -4 16 -3 17 9 7 11 -9 14 -8 14 5 0 9 5 16
10 16 6 0 10 -8 10 -19z m705 9 c4 -6 -6 -10 -22 -10 -22 0 -25 2 -13 10 19
12 27 12 35 0z m1855 -9 c0 -26 -37 -34 -43 -9 -4 16 -3 17 9 7 11 -9 14 -8
14 5 0 9 5 16 10 16 6 0 10 -8 10 -19z m-22993 -8 c3 -7 -4 -11 -15 -10 -10 0
-19 7 -19 14 0 17 29 13 34 -4z m447 2 c-4 -8 -13 -15 -22 -15 -13 0 -12 3 4
15 24 18 25 18 18 0z m76 -1 c0 -8 -4 -12 -10 -9 -5 3 -10 10 -10 16 0 5 5 9
10 9 6 0 10 -7 10 -16z m2037 -1 c3 -7 -4 -11 -15 -10 -10 0 -19 7 -19 14 0
17 29 13 34 -4z m447 2 c-4 -8 -13 -15 -22 -15 -13 0 -12 3 4 15 24 18 25 18
18 0z m76 -1 c0 -8 -4 -12 -10 -9 -5 3 -10 10 -10 16 0 5 5 9 10 9 6 0 10 -7
10 -16z m2037 -1 c3 -7 -4 -11 -15 -10 -10 0 -19 7 -19 14 0 17 29 13 34 -4z
m447 2 c-4 -8 -13 -15 -22 -15 -13 0 -12 3 4 15 24 18 25 18 18 0z m76 -1 c0
-8 -4 -12 -10 -9 -5 3 -10 10 -10 16 0 5 5 9 10 9 6 0 10 -7 10 -16z m2037 -1
c3 -7 -4 -11 -15 -10 -10 0 -19 7 -19 14 0 17 29 13 34 -4z m447 2 c-4 -8 -13
-15 -22 -15 -13 0 -12 3 4 15 24 18 25 18 18 0z m76 -1 c0 -8 -4 -12 -10 -9
-5 3 -10 10 -10 16 0 5 5 9 10 9 6 0 10 -7 10 -16z m2037 -1 c3 -7 -4 -11 -15
-10 -10 0 -19 7 -19 14 0 17 29 13 34 -4z m447 2 c-4 -8 -13 -15 -22 -15 -13
0 -12 3 4 15 24 18 25 18 18 0z m76 -1 c0 -8 -4 -12 -10 -9 -5 3 -10 10 -10
16 0 5 5 9 10 9 6 0 10 -7 10 -16z m2037 -1 c3 -7 -4 -11 -15 -10 -10 0 -19 7
-19 14 0 17 29 13 34 -4z m447 2 c-4 -8 -13 -15 -22 -15 -13 0 -12 3 4 15 24
18 25 18 18 0z m76 -1 c0 -8 -4 -12 -10 -9 -5 3 -10 10 -10 16 0 5 5 9 10 9 6
0 10 -7 10 -16z m2037 -1 c3 -7 -4 -11 -15 -10 -10 0 -19 7 -19 14 0 17 29 13
34 -4z m447 2 c-4 -8 -13 -15 -22 -15 -13 0 -12 3 4 15 24 18 25 18 18 0z m76
-1 c0 -8 -4 -12 -10 -9 -5 3 -10 10 -10 16 0 5 5 9 10 9 6 0 10 -7 10 -16z
m2037 -1 c3 -7 -4 -11 -15 -10 -10 0 -19 7 -19 14 0 17 29 13 34 -4z m447 2
c-4 -8 -13 -15 -22 -15 -13 0 -12 3 4 15 24 18 25 18 18 0z m76 -1 c0 -8 -4
-12 -10 -9 -5 3 -10 10 -10 16 0 5 5 9 10 9 6 0 10 -7 10 -16z m2037 -1 c3 -7
-4 -11 -15 -10 -10 0 -19 7 -19 14 0 17 29 13 34 -4z m447 2 c-4 -8 -13 -15
-22 -15 -13 0 -12 3 4 15 24 18 25 18 18 0z m76 -1 c0 -8 -4 -12 -10 -9 -5 3
-10 10 -10 16 0 5 5 9 10 9 6 0 10 -7 10 -16z m2037 -1 c3 -7 -4 -11 -15 -10
-10 0 -19 7 -19 14 0 17 29 13 34 -4z m447 2 c-4 -8 -13 -15 -22 -15 -13 0
-12 3 4 15 24 18 25 18 18 0z m-24482 -27 c-8 -8 -9 -4 -5 13 4 13 8 18 11 10
2 -7 -1 -18 -6 -23z m493 22 c-3 -5 -11 -10 -16 -10 -6 0 -7 5 -4 10 3 6 11
10 16 10 6 0 7 -4 4 -10z m1185 0 c0 -5 -5 -10 -11 -10 -5 0 -7 5 -4 10 3 6 8
10 11 10 2 0 4 -4 4 -10z m70 0 c0 -5 -7 -10 -16 -10 -8 0 -12 5 -9 10 3 6 10
10 16 10 5 0 9 -4 9 -10z m812 -22 c-8 -8 -9 -4 -5 13 4 13 8 18 11 10 2 -7
-1 -18 -6 -23z m493 22 c-3 -5 -11 -10 -16 -10 -6 0 -7 5 -4 10 3 6 11 10 16
10 6 0 7 -4 4 -10z m1185 0 c0 -5 -5 -10 -11 -10 -5 0 -7 5 -4 10 3 6 8 10 11
10 2 0 4 -4 4 -10z m70 0 c0 -5 -7 -10 -16 -10 -8 0 -12 5 -9 10 3 6 10 10 16
10 5 0 9 -4 9 -10z m812 -22 c-8 -8 -9 -4 -5 13 4 13 8 18 11 10 2 -7 -1 -18
-6 -23z m493 22 c-3 -5 -11 -10 -16 -10 -6 0 -7 5 -4 10 3 6 11 10 16 10 6 0
7 -4 4 -10z m1185 0 c0 -5 -5 -10 -11 -10 -5 0 -7 5 -4 10 3 6 8 10 11 10 2 0
4 -4 4 -10z m70 0 c0 -5 -7 -10 -16 -10 -8 0 -12 5 -9 10 3 6 10 10 16 10 5 0
9 -4 9 -10z m812 -22 c-8 -8 -9 -4 -5 13 4 13 8 18 11 10 2 -7 -1 -18 -6 -23z
m493 22 c-3 -5 -11 -10 -16 -10 -6 0 -7 5 -4 10 3 6 11 10 16 10 6 0 7 -4 4
-10z m1185 0 c0 -5 -5 -10 -11 -10 -5 0 -7 5 -4 10 3 6 8 10 11 10 2 0 4 -4 4
-10z m70 0 c0 -5 -7 -10 -16 -10 -8 0 -12 5 -9 10 3 6 10 10 16 10 5 0 9 -4 9
-10z m812 -22 c-8 -8 -9 -4 -5 13 4 13 8 18 11 10 2 -7 -1 -18 -6 -23z m493
22 c-3 -5 -11 -10 -16 -10 -6 0 -7 5 -4 10 3 6 11 10 16 10 6 0 7 -4 4 -10z
m1185 0 c0 -5 -5 -10 -11 -10 -5 0 -7 5 -4 10 3 6 8 10 11 10 2 0 4 -4 4 -10z
m70 0 c0 -5 -7 -10 -16 -10 -8 0 -12 5 -9 10 3 6 10 10 16 10 5 0 9 -4 9 -10z
m812 -22 c-8 -8 -9 -4 -5 13 4 13 8 18 11 10 2 -7 -1 -18 -6 -23z m493 22 c-3
-5 -11 -10 -16 -10 -6 0 -7 5 -4 10 3 6 11 10 16 10 6 0 7 -4 4 -10z m1185 0
c0 -5 -5 -10 -11 -10 -5 0 -7 5 -4 10 3 6 8 10 11 10 2 0 4 -4 4 -10z m70 0
c0 -5 -7 -10 -16 -10 -8 0 -12 5 -9 10 3 6 10 10 16 10 5 0 9 -4 9 -10z m812
-22 c-8 -8 -9 -4 -5 13 4 13 8 18 11 10 2 -7 -1 -18 -6 -23z m493 22 c-3 -5
-11 -10 -16 -10 -6 0 -7 5 -4 10 3 6 11 10 16 10 6 0 7 -4 4 -10z m1185 0 c0
-5 -5 -10 -11 -10 -5 0 -7 5 -4 10 3 6 8 10 11 10 2 0 4 -4 4 -10z m70 0 c0
-5 -7 -10 -16 -10 -8 0 -12 5 -9 10 3 6 10 10 16 10 5 0 9 -4 9 -10z m812 -22
c-8 -8 -9 -4 -5 13 4 13 8 18 11 10 2 -7 -1 -18 -6 -23z m493 22 c-3 -5 -11
-10 -16 -10 -6 0 -7 5 -4 10 3 6 11 10 16 10 6 0 7 -4 4 -10z m1185 0 c0 -5
-5 -10 -11 -10 -5 0 -7 5 -4 10 3 6 8 10 11 10 2 0 4 -4 4 -10z m70 0 c0 -5
-7 -10 -16 -10 -8 0 -12 5 -9 10 3 6 10 10 16 10 5 0 9 -4 9 -10z m812 -22
c-8 -8 -9 -4 -5 13 4 13 8 18 11 10 2 -7 -1 -18 -6 -23z m493 22 c-3 -5 -11
-10 -16 -10 -6 0 -7 5 -4 10 3 6 11 10 16 10 6 0 7 -4 4 -10z m1185 0 c0 -5
-5 -10 -11 -10 -5 0 -7 5 -4 10 3 6 8 10 11 10 2 0 4 -4 4 -10z m70 0 c0 -5
-7 -10 -16 -10 -8 0 -12 5 -9 10 3 6 10 10 16 10 5 0 9 -4 9 -10z m812 -22
c-8 -8 -9 -4 -5 13 4 13 8 18 11 10 2 -7 -1 -18 -6 -23z m493 22 c-3 -5 -11
-10 -16 -10 -6 0 -7 5 -4 10 3 6 11 10 16 10 6 0 7 -4 4 -10z m-24697 -2645
c-3 -3 -9 2 -12 12 -6 14 -5 15 5 6 7 -7 10 -15 7 -18z m1202 11 c0 -2 -6 -9
-14 -15 -11 -9 -16 -9 -22 0 -4 7 -3 9 4 5 6 -3 13 -2 17 4 6 10 15 14 15 6z
m-1100 -15 c0 -5 -8 -12 -17 -15 -15 -6 -15 -9 -3 -17 13 -9 13 -10 -1 -6 -9
3 -22 0 -30 -6 -7 -7 -2 2 12 20 24 32 39 41 39 24z m705 -10 c-3 -6 -11 -11
-16 -11 -5 0 -4 6 3 14 14 16 24 13 13 -3z m44 3 c7 5 9 1 5 -9 -5 -12 -9 -13
-20 -4 -8 6 -14 17 -14 23 0 6 4 5 9 -3 5 -7 14 -11 20 -7z m-896 -8 c4 -10 1
-13 -8 -9 -8 3 -12 9 -9 14 7 12 11 11 17 -5z m442 4 c3 -5 1 -10 -4 -10 -6 0
-11 5 -11 10 0 6 2 10 4 10 3 0 8 -4 11 -10z m875 6 c0 -3 -4 -8 -10 -11 -5
-3 -10 -1 -10 4 0 6 5 11 10 11 6 0 10 -2 10 -4z m-630 -16 c0 -5 -5 -10 -11
-10 -5 0 -7 5 -4 10 3 6 8 10 11 10 2 0 4 -4 4 -10z m35 1 c-3 -5 3 -12 12
-14 14 -4 13 -5 -4 -6 -14 -1 -23 5 -23 14 0 8 5 15 11 15 5 0 8 -4 4 -9z
m215 -11 c-28 -22 -48 -27 -28 -7 12 12 35 24 48 26 3 0 -6 -8 -20 -19z m270
10 c0 -5 -7 -7 -15 -4 -8 4 -15 8 -15 10 0 2 7 4 15 4 8 0 15 -4 15 -10z
m-1024 -13 c4 -4 0 -7 -9 -7 -9 0 -18 4 -21 9 -7 10 20 9 30 -2z m988 5 c3 -5
-1 -9 -9 -9 -8 0 -15 4 -15 9 0 4 4 8 9 8 6 0 12 -4 15 -8z m-958 -26 c0 -13
-4 -22 -8 -20 -4 3 -11 -4 -17 -13 -11 -20 -12 -19 -16 13 -1 14 3 21 14 20 9
0 15 5 14 12 -2 6 1 12 6 12 5 0 8 -11 7 -24z m137 4 c3 -11 1 -18 -4 -14 -5
3 -9 12 -9 20 0 20 7 17 13 -6z m67 8 c0 -5 -4 -7 -9 -4 -5 4 -11 2 -13 -3 -1
-5 -11 -3 -22 4 -17 13 -16 14 13 13 17 -1 31 -5 31 -10z m60 -28 c0 -14 -28
-31 -34 -21 -4 5 -2 12 4 16 6 4 8 11 5 16 -3 5 1 6 9 3 9 -3 16 -10 16 -14z
m-112 2 c9 9 12 8 12 -5 0 -11 -8 -17 -25 -17 -14 0 -25 -5 -25 -11 0 -6 -7
-8 -16 -5 -14 5 -15 4 -5 -8 7 -8 8 -17 3 -19 -4 -3 -13 3 -20 14 -9 13 -9 19
-1 19 6 0 8 7 5 16 -5 14 -4 15 9 4 14 -11 19 -7 16 13 -1 4 7 3 17 -2 13 -7
22 -7 30 1z m423 -13 c5 -8 8 -21 8 -29 0 -8 -4 -5 -9 8 -8 20 -24 33 -17 15
1 -5 -2 -10 -8 -12 -5 -2 -16 -11 -22 -20 -11 -14 -12 -12 -11 14 1 17 3 33 4
36 6 11 46 3 55 -12z m428 -20 c-23 -14 -31 2 -12 23 16 18 18 19 21 3 2 -10
-2 -21 -9 -26z"/>
<path d="M2022 3224 c-14 -16 -5 -18 17 -5 7 5 9 11 5 14 -5 3 -15 -1 -22 -9z"/>
<path d="M2570 3210 c-9 -6 -10 -10 -3 -10 6 0 15 5 18 10 8 12 4 12 -15 0z"/>
<path d="M4582 3224 c-14 -16 -5 -18 17 -5 7 5 9 11 5 14 -5 3 -15 -1 -22 -9z"/>
<path d="M5130 3210 c-9 -6 -10 -10 -3 -10 6 0 15 5 18 10 8 12 4 12 -15 0z"/>
<path d="M7142 3224 c-14 -16 -5 -18 17 -5 7 5 9 11 5 14 -5 3 -15 -1 -22 -9z"/>
<path d="M7690 3210 c-9 -6 -10 -10 -3 -10 6 0 15 5 18 10 8 12 4 12 -15 0z"/>
<path d="M9702 3224 c-14 -16 -5 -18 17 -5 7 5 9 11 5 14 -5 3 -15 -1 -22 -9z"/>
<path d="M10250 3210 c-9 -6 -10 -10 -3 -10 6 0 15 5 18 10 8 12 4 12 -15 0z"/>
<path d="M12262 3224 c-14 -16 -5 -18 17 -5 7 5 9 11 5 14 -5 3 -15 -1 -22 -9z"/>
<path d="M12810 3210 c-9 -6 -10 -10 -3 -10 6 0 15 5 18 10 8 12 4 12 -15 0z"/>
<path d="M14822 3224 c-14 -16 -5 -18 17 -5 7 5 9 11 5 14 -5 3 -15 -1 -22 -9z"/>
<path d="M15370 3210 c-9 -6 -10 -10 -3 -10 6 0 15 5 18 10 8 12 4 12 -15 0z"/>
<path d="M17382 3224 c-14 -16 -5 -18 17 -5 7 5 9 11 5 14 -5 3 -15 -1 -22 -9z"/>
<path d="M17930 3210 c-9 -6 -10 -10 -3 -10 6 0 15 5 18 10 8 12 4 12 -15 0z"/>
<path d="M19942 3224 c-14 -16 -5 -18 17 -5 7 5 9 11 5 14 -5 3 -15 -1 -22 -9z"/>
<path d="M20490 3210 c-9 -6 -10 -10 -3 -10 6 0 15 5 18 10 8 12 4 12 -15 0z"/>
<path d="M22502 3224 c-14 -16 -5 -18 17 -5 7 5 9 11 5 14 -5 3 -15 -1 -22 -9z"/>
<path d="M23050 3210 c-9 -6 -10 -10 -3 -10 6 0 15 5 18 10 8 12 4 12 -15 0z"/>
<path d="M25062 3224 c-14 -16 -5 -18 17 -5 7 5 9 11 5 14 -5 3 -15 -1 -22 -9z"/>
<path d="M25610 3210 c-9 -6 -10 -10 -3 -10 6 0 15 5 18 10 8 12 4 12 -15 0z"/>
<path d="M2295 3200 c-3 -6 1 -7 9 -4 18 7 21 14 7 14 -6 0 -13 -4 -16 -10z"/>
<path d="M4855 3200 c-3 -6 1 -7 9 -4 18 7 21 14 7 14 -6 0 -13 -4 -16 -10z"/>
<path d="M7415 3200 c-3 -6 1 -7 9 -4 18 7 21 14 7 14 -6 0 -13 -4 -16 -10z"/>
<path d="M9975 3200 c-3 -6 1 -7 9 -4 18 7 21 14 7 14 -6 0 -13 -4 -16 -10z"/>
<path d="M12535 3200 c-3 -6 1 -7 9 -4 18 7 21 14 7 14 -6 0 -13 -4 -16 -10z"/>
<path d="M15095 3200 c-3 -6 1 -7 9 -4 18 7 21 14 7 14 -6 0 -13 -4 -16 -10z"/>
<path d="M17655 3200 c-3 -6 1 -7 9 -4 18 7 21 14 7 14 -6 0 -13 -4 -16 -10z"/>
<path d="M20215 3200 c-3 -6 1 -7 9 -4 18 7 21 14 7 14 -6 0 -13 -4 -16 -10z"/>
<path d="M22775 3200 c-3 -6 1 -7 9 -4 18 7 21 14 7 14 -6 0 -13 -4 -16 -10z"/>
<path d="M25335 3200 c-3 -6 1 -7 9 -4 18 7 21 14 7 14 -6 0 -13 -4 -16 -10z"/>
<path d="M7105 4653 c-98 -7 -282 -34 -395 -59 -163 -36 -337 -96 -625 -215
-137 -56 -297 -119 -355 -140 -122 -43 -124 -42 61 -83 404 -90 848 -81 1243
24 153 41 215 63 491 175 295 120 428 172 466 180 16 4 31 10 33 14 6 9 -177
53 -309 75 -179 30 -422 42 -610 29z"/>
<path d="M12185 4654 c-404 -41 -504 -67 -1065 -279 -223 -84 -431 -161 -463
-171 -31 -10 -54 -21 -50 -25 5 -4 58 -18 118 -33 378 -89 792 -94 1165 -14
160 34 307 83 714 237 215 82 409 154 431 161 22 7 44 16 48 20 12 11 -186 57
-346 81 -126 19 -457 33 -552 23z"/>
<path d="M4000 3250 c0 -5 5 -10 10 -10 6 0 10 5 10 10 0 6 -4 10 -10 10 -5 0
-10 -4 -10 -10z"/>
<path d="M6560 3250 c0 -5 5 -10 10 -10 6 0 10 5 10 10 0 6 -4 10 -10 10 -5 0
-10 -4 -10 -10z"/>
<path d="M9120 3250 c0 -5 5 -10 10 -10 6 0 10 5 10 10 0 6 -4 10 -10 10 -5 0
-10 -4 -10 -10z"/>
<path d="M11680 3250 c0 -5 5 -10 10 -10 6 0 10 5 10 10 0 6 -4 10 -10 10 -5
0 -10 -4 -10 -10z"/>
<path d="M14240 3250 c0 -5 5 -10 10 -10 6 0 10 5 10 10 0 6 -4 10 -10 10 -5
0 -10 -4 -10 -10z"/>
<path d="M16800 3250 c0 -5 5 -10 10 -10 6 0 10 5 10 10 0 6 -4 10 -10 10 -5
0 -10 -4 -10 -10z"/>
<path d="M19360 3250 c0 -5 5 -10 10 -10 6 0 10 5 10 10 0 6 -4 10 -10 10 -5
0 -10 -4 -10 -10z"/>
<path d="M21920 3250 c0 -5 5 -10 10 -10 6 0 10 5 10 10 0 6 -4 10 -10 10 -5
0 -10 -4 -10 -10z"/>
<path d="M24480 3250 c0 -5 5 -10 10 -10 6 0 10 5 10 10 0 6 -4 10 -10 10 -5
0 -10 -4 -10 -10z"/>
<path d="M1911 449 c12 -24 2 -24 -24 -1 -19 16 -20 16 -9 -4 16 -31 40 -37
47 -13 5 16 9 18 21 8 12 -10 13 -9 9 4 -4 8 -17 17 -30 19 -21 4 -23 3 -14
-13z"/>
<path d="M1960 460 c0 -5 5 -10 10 -10 6 0 10 5 10 10 0 6 -4 10 -10 10 -5 0
-10 -4 -10 -10z"/>
<path d="M2340 458 c0 -14 16 -16 33 -3 17 12 16 13 -7 11 -15 0 -26 -4 -26
-8z"/>
<path d="M2035 439 c-4 -6 -5 -12 -2 -15 2 -3 7 2 10 11 7 17 1 20 -8 4z"/>
<path d="M1444 420 c1 -8 10 -16 21 -17 15 -1 15 0 3 3 -9 3 -19 11 -21 17 -2
7 -3 5 -3 -3z"/>
<path d="M1596 424 c-9 -23 -8 -24 22 -23 22 1 23 2 5 6 -14 3 -20 9 -16 19 3
8 3 14 0 14 -3 0 -8 -7 -11 -16z"/>
<path d="M2295 430 c-3 -5 6 -7 20 -4 14 2 25 1 25 -4 0 -11 38 -13 45 -2 3 5
-3 9 -12 9 -10 0 -30 2 -45 5 -16 2 -30 0 -33 -4z"/>
</g>
</svg>
